<svg width="40" height="40" viewBox="0 0 40 40" fill="none" xmlns="http://www.w3.org/2000/svg">
<circle cx="20" cy="20" r="20" fill="#E6E6E6"/>
<path d="M29.5922 16.7112H25.5057C25.3891 16.041 25.1742 15.4474 24.861 14.9302C24.5478 14.4057 24.1581 13.9614 23.6919 13.5971C23.2257 13.2329 22.6939 12.9598 22.0966 12.7776C21.5066 12.5883 20.8692 12.4936 20.1844 12.4936C18.968 12.4936 17.8899 12.7995 16.9502 13.4114C16.0105 14.016 15.2748 14.9047 14.743 16.0775C14.2113 17.243 13.9454 18.6671 13.9454 20.3498C13.9454 22.0616 14.2113 23.5039 14.743 24.6767C15.2821 25.8422 16.0178 26.7236 16.9502 27.3209C17.8899 27.911 18.9643 28.206 20.1735 28.206C20.8437 28.206 21.4701 28.1186 22.0529 27.9437C22.6429 27.7616 23.171 27.4957 23.6372 27.1461C24.1107 26.7964 24.5077 26.3667 24.8282 25.8568C25.156 25.3468 25.3819 24.7641 25.5057 24.1085L29.5922 24.1304C29.4393 25.1939 29.1078 26.1918 28.5979 27.1242C28.0953 28.0566 27.436 28.8798 26.6202 29.5936C25.8043 30.3002 24.8501 30.8538 23.7574 31.2545C22.6648 31.6478 21.4519 31.8445 20.1189 31.8445C18.1521 31.8445 16.3966 31.3892 14.8523 30.4787C13.308 29.5681 12.0915 28.2533 11.2028 26.5342C10.3141 24.8151 9.86976 22.7536 9.86976 20.3498C9.86976 17.9386 10.3177 15.8772 11.2137 14.1653C12.1097 12.4462 13.3298 11.1314 14.8741 10.2208C16.4184 9.31028 18.1667 8.85501 20.1189 8.85501C21.3645 8.85501 22.5227 9.02983 23.5935 9.37948C24.6643 9.72913 25.6186 10.2427 26.4563 10.9201C27.294 11.5903 27.9824 12.4134 28.5214 13.3895C29.0678 14.3584 29.4247 15.4656 29.5922 16.7112Z" fill="#0C2930"/>
</svg>
