<svg width="34" height="30" viewBox="0 0 34 30" fill="none" xmlns="http://www.w3.org/2000/svg">
<path d="M20.3616 0.832457C19.2069 0.284355 17.9447 0 16.6666 0C15.3884 0 14.1262 0.284355 12.9716 0.832457L1.81989 6.06079C0.0265531 6.90079 -0.44178 9.27246 0.416553 10.9108V19.1658C0.416553 19.4973 0.548249 19.8153 0.782669 20.0497C1.01709 20.2841 1.33503 20.4158 1.66655 20.4158C1.99807 20.4158 2.31602 20.2841 2.55044 20.0497C2.78486 19.8153 2.91655 19.4973 2.91655 19.1658V12.7858L12.9716 17.4991C14.1262 18.0472 15.3884 18.3316 16.6666 18.3316C17.9447 18.3316 19.2069 18.0472 20.3616 17.4991L31.5132 12.2708C33.9399 11.1341 33.9399 7.19746 31.5132 6.06079L20.3632 0.832457H20.3616Z" fill="#56909D"/>
<path d="M5 16.5241V22.7074C5 24.3874 5.83833 25.9608 7.30833 26.7741C9.75667 28.1324 13.6733 29.9991 16.6667 29.9991C19.66 29.9991 23.5767 28.1308 26.025 26.7758C27.495 25.9608 28.3333 24.3874 28.3333 22.7091V16.5241L21.4233 19.7641C19.9364 20.468 18.3118 20.8332 16.6667 20.8332C15.0215 20.8332 13.3969 20.468 11.91 19.7641L5 16.5241Z" fill="#56909D"/>
</svg>
