<svg width="33" height="31" viewBox="0 0 33 31" fill="none" xmlns="http://www.w3.org/2000/svg">
<path d="M29.5938 7.4184H23.4285C23.4285 5.45092 22.649 3.56402 21.2615 2.1728C19.874 0.781579 17.9922 0 16.03 0C14.0678 0 12.186 0.781579 10.7985 2.1728C9.41102 3.56402 8.63154 5.45092 8.63154 7.4184H2.46615C1.81209 7.4184 1.18481 7.67893 0.72232 8.14267C0.259826 8.60641 0 9.23537 0 9.8912V28.4372C0 29.093 0.259826 29.722 0.72232 30.1857C1.18481 30.6495 1.81209 30.91 2.46615 30.91H29.5938C30.2479 30.91 30.8752 30.6495 31.3377 30.1857C31.8002 29.722 32.06 29.093 32.06 28.4372V9.8912C32.06 9.23537 31.8002 8.60641 31.3377 8.14267C30.8752 7.67893 30.2479 7.4184 29.5938 7.4184ZM11.0977 13.6004C11.0977 13.9283 10.9678 14.2428 10.7365 14.4747C10.5053 14.7065 10.1916 14.8368 9.86462 14.8368C9.53758 14.8368 9.22395 14.7065 8.9927 14.4747C8.76145 14.2428 8.63154 13.9283 8.63154 13.6004V11.1276C8.63154 10.7997 8.76145 10.4852 8.9927 10.2533C9.22395 10.0215 9.53758 9.8912 9.86462 9.8912C10.1916 9.8912 10.5053 10.0215 10.7365 10.2533C10.9678 10.4852 11.0977 10.7997 11.0977 11.1276V13.6004ZM16.03 2.4728C17.3381 2.4728 18.5927 2.99385 19.5177 3.92133C20.4427 4.84881 20.9623 6.10675 20.9623 7.4184H11.0977C11.0977 6.10675 11.6173 4.84881 12.5423 3.92133C13.4673 2.99385 14.7219 2.4728 16.03 2.4728ZM23.4285 13.6004C23.4285 13.9283 23.2985 14.2428 23.0673 14.4747C22.8361 14.7065 22.5224 14.8368 22.1954 14.8368C21.8684 14.8368 21.5547 14.7065 21.3235 14.4747C21.0922 14.2428 20.9623 13.9283 20.9623 13.6004V11.1276C20.9623 10.7997 21.0922 10.4852 21.3235 10.2533C21.5547 10.0215 21.8684 9.8912 22.1954 9.8912C22.5224 9.8912 22.8361 10.0215 23.0673 10.2533C23.2985 10.4852 23.4285 10.7997 23.4285 11.1276V13.6004Z" fill="#56909D"/>
</svg>
