<svg width="1728" height="914" viewBox="0 0 1728 914" fill="none" xmlns="http://www.w3.org/2000/svg">
<rect width="1728" height="914" fill="#FAFEFF"/>
<line x1="34.5294" y1="192.5" x2="34.5292" y2="839.5" stroke="#DBDBDB" stroke-linecap="round" stroke-dasharray="40 40"/>
<line x1="311.186" y1="192.5" x2="311.186" y2="839.5" stroke="#DBDBDB" stroke-linecap="round" stroke-dasharray="40 40"/>
<line x1="587.843" y1="192.5" x2="587.843" y2="839.5" stroke="#DBDBDB" stroke-linecap="round" stroke-dasharray="40 40"/>
<line x1="864.5" y1="192.5" x2="864.5" y2="839.5" stroke="#DBDBDB" stroke-linecap="round" stroke-dasharray="40 40"/>
<line x1="1141.16" y1="192.5" x2="1141.16" y2="839.5" stroke="#DBDBDB" stroke-linecap="round" stroke-dasharray="40 40"/>
<line x1="1417.81" y1="192.5" x2="1417.81" y2="839.5" stroke="#DBDBDB" stroke-linecap="round" stroke-dasharray="40 40"/>
<line x1="1694.47" y1="192.5" x2="1694.47" y2="839.5" stroke="#DBDBDB" stroke-linecap="round" stroke-dasharray="40 40"/>
<line x1="2.79633" y1="827.153" x2="1727.5" y2="827.153" stroke="#DBDBDB" stroke-linecap="round" stroke-dasharray="40 40"/>
<line x1="2.41345" y1="723.269" x2="1727.12" y2="723.269" stroke="#DBDBDB" stroke-linecap="round" stroke-dasharray="40 40"/>
<line x1="2.03088" y1="619.384" x2="1726.73" y2="619.384" stroke="#DBDBDB" stroke-linecap="round" stroke-dasharray="40 40"/>
<line x1="1.64801" y1="515.5" x2="1726.35" y2="515.5" stroke="#DBDBDB" stroke-linecap="round" stroke-dasharray="40 40"/>
<line x1="1.26544" y1="411.616" x2="1725.97" y2="411.616" stroke="#DBDBDB" stroke-linecap="round" stroke-dasharray="40 40"/>
<line x1="0.882568" y1="307.731" x2="1725.59" y2="307.731" stroke="#DBDBDB" stroke-linecap="round" stroke-dasharray="40 40"/>
<line x1="0.5" y1="203.847" x2="1725.2" y2="203.847" stroke="#DBDBDB" stroke-linecap="round" stroke-dasharray="40 40"/>
<rect x="203" y="249" width="277" height="543" rx="41" fill="white" stroke="#D9D9D9" stroke-width="10"/>
<rect x="301" y="244" width="81" height="24" rx="9" fill="#D9D9D9"/>
<g filter="url(#filter0_d_200_233)">
<circle cx="335.5" cy="395.5" r="46.5" fill="white"/>
</g>
<path fill-rule="evenodd" clip-rule="evenodd" d="M335.776 394.855C341.435 394.855 346.022 390.268 346.022 384.609C346.022 378.951 341.435 374.364 335.776 374.364C330.118 374.364 325.531 378.951 325.531 384.609C325.531 390.268 330.118 394.855 335.776 394.855ZM354.313 408.088C356.857 412.99 352.185 417.711 346.662 417.711H335.776H324.891C319.368 417.711 314.696 412.99 317.24 408.088C318.216 406.207 319.482 404.469 321.008 402.942C324.925 399.026 330.237 396.825 335.776 396.825C341.316 396.825 346.628 399.026 350.545 402.942C352.071 404.469 353.337 406.207 354.313 408.088Z" fill="#126678"/>
<g filter="url(#filter1_d_200_233)">
<circle cx="46.5" cy="46.5" r="46.5" transform="matrix(-1 0 0 1 429 510)" fill="white"/>
</g>
<path fill-rule="evenodd" clip-rule="evenodd" d="M382.224 555.855C376.565 555.855 371.978 551.268 371.978 545.609C371.978 539.951 376.565 535.364 382.224 535.364C387.882 535.364 392.469 539.951 392.469 545.609C392.469 551.268 387.882 555.855 382.224 555.855ZM363.687 569.088C361.143 573.99 365.815 578.711 371.338 578.711H382.224H393.109C398.632 578.711 403.304 573.99 400.76 569.088C399.784 567.207 398.518 565.469 396.992 563.942C393.075 560.026 387.763 557.825 382.224 557.825C376.684 557.825 371.372 560.026 367.455 563.942C365.929 565.469 364.663 567.207 363.687 569.088Z" fill="#126678"/>
<g filter="url(#filter2_d_200_233)">
<rect x="397" y="362" width="187" height="68" rx="20" fill="white"/>
</g>
<path d="M429 387H553" stroke="#126678" stroke-width="5" stroke-linecap="round"/>
<path d="M429 405H491" stroke="#126678" stroke-width="5" stroke-linecap="round"/>
<g filter="url(#filter3_d_200_233)">
<rect width="187" height="68" rx="20" transform="matrix(-1 0 0 1 321 523)" fill="white"/>
</g>
<path d="M289 548H165" stroke="#126678" stroke-width="5" stroke-linecap="round"/>
<path d="M289 566H227" stroke="#126678" stroke-width="5" stroke-linecap="round"/>
<rect x="791" y="246" width="277" height="543" rx="41" fill="white" stroke="#D9D9D9" stroke-width="10"/>
<rect x="889" y="241" width="81" height="24" rx="9" fill="#D9D9D9"/>
<rect x="809" y="338" width="236" height="413" rx="27" fill="#FAFAFA"/>
<g filter="url(#filter4_d_200_233)">
<rect x="729" y="358.969" width="236" height="413" rx="27" transform="rotate(-12.4726 729 358.969)" fill="white"/>
</g>
<line x1="800.827" y1="551.732" x2="974.626" y2="513.289" stroke="#1E5966" stroke-width="5" stroke-linecap="round"/>
<line x1="807.306" y1="581.024" x2="981.105" y2="542.581" stroke="#1E5966" stroke-width="5" stroke-linecap="round"/>
<line x1="813.785" y1="610.316" x2="987.584" y2="571.873" stroke="#1E5966" stroke-width="5" stroke-linecap="round"/>
<line x1="820.264" y1="639.608" x2="994.063" y2="601.165" stroke="#1E5966" stroke-width="5" stroke-linecap="round"/>
<rect x="762.858" y="391.655" width="185" height="113" transform="rotate(-12.4726 762.858 391.655)" fill="#F4F4F4"/>
<rect x="827.866" y="685.551" width="92" height="21" rx="6" transform="rotate(-12.4726 827.866 685.551)" fill="#F4F4F4"/>
<rect x="930.388" y="662.874" width="92" height="21" rx="6" transform="rotate(-12.4726 930.388 662.874)" fill="#F4F4F4"/>
<rect x="1312" y="249" width="277" height="543" rx="41" fill="white" stroke="#D9D9D9" stroke-width="10"/>
<rect x="1410" y="244" width="81" height="24" rx="9" fill="#D9D9D9"/>
<g filter="url(#filter5_d_200_233)">
<circle cx="1451" cy="439" r="79" fill="white"/>
</g>
<path d="M1427.97 462.281C1422.33 456.645 1418.97 449.157 1418.49 441.248L1483.51 441.248C1483.03 449.157 1479.67 456.645 1474.03 462.281C1467.92 468.39 1459.64 471.822 1451 471.822C1442.36 471.822 1434.08 468.39 1427.97 462.281Z" fill="#F4F4F4" stroke="#1E5966" stroke-width="4"/>
<rect x="1415" y="437" width="72" height="7" fill="#F4F4F4"/>
<rect x="1428.19" y="384" width="44.198" height="79.4852" rx="22.099" fill="#1E5966"/>
<rect x="1447.44" y="472.752" width="7.12871" height="16.0396" fill="#1E5966"/>
<rect x="1440.31" y="488.436" width="21.3861" height="6.05941" fill="#1E5966"/>
<rect x="1364" y="540" width="5" height="52" rx="2.5" fill="#1E5966"/>
<rect x="1377" y="551" width="5" height="30" rx="2.5" fill="#1E5966"/>
<rect x="1390" y="549" width="5" height="34" rx="2.5" fill="#1E5966"/>
<rect x="1403" y="547" width="5" height="39" rx="2.5" fill="#1E5966"/>
<rect x="1416" y="544" width="5" height="44" rx="2.5" fill="#1E5966"/>
<rect x="1429" y="558" width="5" height="16" rx="2.5" fill="#1E5966"/>
<rect x="1442" y="549" width="5" height="34" rx="2.5" fill="#1E5966"/>
<rect x="1455" y="544" width="5" height="44" rx="2.5" fill="#1E5966"/>
<rect x="1468" y="544" width="5" height="44" rx="2.5" fill="#1E5966"/>
<rect x="1481" y="552" width="5" height="28" rx="2.5" fill="#1E5966"/>
<rect x="1494" y="551" width="5" height="30" rx="2.5" fill="#D9D9D9"/>
<rect x="1507" y="548" width="5" height="37" rx="2.5" fill="#D9D9D9"/>
<rect x="1520" y="544" width="5" height="44" rx="2.5" fill="#D9D9D9"/>
<rect x="1533" y="552" width="5" height="28" rx="2.5" fill="#D9D9D9"/>
<defs>
<filter id="filter0_d_200_233" x="285" y="349" width="101" height="101" filterUnits="userSpaceOnUse" color-interpolation-filters="sRGB">
<feFlood flood-opacity="0" result="BackgroundImageFix"/>
<feColorMatrix in="SourceAlpha" type="matrix" values="0 0 0 0 0 0 0 0 0 0 0 0 0 0 0 0 0 0 127 0" result="hardAlpha"/>
<feOffset dy="4"/>
<feGaussianBlur stdDeviation="2"/>
<feComposite in2="hardAlpha" operator="out"/>
<feColorMatrix type="matrix" values="0 0 0 0 0 0 0 0 0 0 0 0 0 0 0 0 0 0 0.25 0"/>
<feBlend mode="normal" in2="BackgroundImageFix" result="effect1_dropShadow_200_233"/>
<feBlend mode="normal" in="SourceGraphic" in2="effect1_dropShadow_200_233" result="shape"/>
</filter>
<filter id="filter1_d_200_233" x="332" y="510" width="101" height="101" filterUnits="userSpaceOnUse" color-interpolation-filters="sRGB">
<feFlood flood-opacity="0" result="BackgroundImageFix"/>
<feColorMatrix in="SourceAlpha" type="matrix" values="0 0 0 0 0 0 0 0 0 0 0 0 0 0 0 0 0 0 127 0" result="hardAlpha"/>
<feOffset dy="4"/>
<feGaussianBlur stdDeviation="2"/>
<feComposite in2="hardAlpha" operator="out"/>
<feColorMatrix type="matrix" values="0 0 0 0 0 0 0 0 0 0 0 0 0 0 0 0 0 0 0.25 0"/>
<feBlend mode="normal" in2="BackgroundImageFix" result="effect1_dropShadow_200_233"/>
<feBlend mode="normal" in="SourceGraphic" in2="effect1_dropShadow_200_233" result="shape"/>
</filter>
<filter id="filter2_d_200_233" x="393" y="362" width="195" height="76" filterUnits="userSpaceOnUse" color-interpolation-filters="sRGB">
<feFlood flood-opacity="0" result="BackgroundImageFix"/>
<feColorMatrix in="SourceAlpha" type="matrix" values="0 0 0 0 0 0 0 0 0 0 0 0 0 0 0 0 0 0 127 0" result="hardAlpha"/>
<feOffset dy="4"/>
<feGaussianBlur stdDeviation="2"/>
<feComposite in2="hardAlpha" operator="out"/>
<feColorMatrix type="matrix" values="0 0 0 0 0 0 0 0 0 0 0 0 0 0 0 0 0 0 0.25 0"/>
<feBlend mode="normal" in2="BackgroundImageFix" result="effect1_dropShadow_200_233"/>
<feBlend mode="normal" in="SourceGraphic" in2="effect1_dropShadow_200_233" result="shape"/>
</filter>
<filter id="filter3_d_200_233" x="130" y="523" width="195" height="76" filterUnits="userSpaceOnUse" color-interpolation-filters="sRGB">
<feFlood flood-opacity="0" result="BackgroundImageFix"/>
<feColorMatrix in="SourceAlpha" type="matrix" values="0 0 0 0 0 0 0 0 0 0 0 0 0 0 0 0 0 0 127 0" result="hardAlpha"/>
<feOffset dy="4"/>
<feGaussianBlur stdDeviation="2"/>
<feComposite in2="hardAlpha" operator="out"/>
<feColorMatrix type="matrix" values="0 0 0 0 0 0 0 0 0 0 0 0 0 0 0 0 0 0 0.25 0"/>
<feBlend mode="normal" in2="BackgroundImageFix" result="effect1_dropShadow_200_233"/>
<feBlend mode="normal" in="SourceGraphic" in2="effect1_dropShadow_200_233" result="shape"/>
</filter>
<filter id="filter4_d_200_233" x="730.188" y="313.188" width="317.25" height="451.846" filterUnits="userSpaceOnUse" color-interpolation-filters="sRGB">
<feFlood flood-opacity="0" result="BackgroundImageFix"/>
<feColorMatrix in="SourceAlpha" type="matrix" values="0 0 0 0 0 0 0 0 0 0 0 0 0 0 0 0 0 0 127 0" result="hardAlpha"/>
<feOffset dy="4"/>
<feGaussianBlur stdDeviation="2"/>
<feComposite in2="hardAlpha" operator="out"/>
<feColorMatrix type="matrix" values="0 0 0 0 0 0 0 0 0 0 0 0 0 0 0 0 0 0 0.25 0"/>
<feBlend mode="normal" in2="BackgroundImageFix" result="effect1_dropShadow_200_233"/>
<feBlend mode="normal" in="SourceGraphic" in2="effect1_dropShadow_200_233" result="shape"/>
</filter>
<filter id="filter5_d_200_233" x="1368" y="360" width="166" height="166" filterUnits="userSpaceOnUse" color-interpolation-filters="sRGB">
<feFlood flood-opacity="0" result="BackgroundImageFix"/>
<feColorMatrix in="SourceAlpha" type="matrix" values="0 0 0 0 0 0 0 0 0 0 0 0 0 0 0 0 0 0 127 0" result="hardAlpha"/>
<feOffset dy="4"/>
<feGaussianBlur stdDeviation="2"/>
<feComposite in2="hardAlpha" operator="out"/>
<feColorMatrix type="matrix" values="0 0 0 0 0 0 0 0 0 0 0 0 0 0 0 0 0 0 0.25 0"/>
<feBlend mode="normal" in2="BackgroundImageFix" result="effect1_dropShadow_200_233"/>
<feBlend mode="normal" in="SourceGraphic" in2="effect1_dropShadow_200_233" result="shape"/>
</filter>
</defs>
</svg>
