<svg width="40" height="40" viewBox="0 0 40 40" fill="none" xmlns="http://www.w3.org/2000/svg">
<path d="M36.9231 0H3.07692C2.26087 0 1.47824 0.324175 0.90121 0.90121C0.324175 1.47824 0 2.26087 0 3.07692V36.9231C0 37.7391 0.324175 38.5218 0.90121 39.0988C1.47824 39.6758 2.26087 40 3.07692 40H36.9231C37.7391 40 38.5218 39.6758 39.0988 39.0988C39.6758 38.5218 40 37.7391 40 36.9231V3.07692C40 2.26087 39.6758 1.47824 39.0988 0.90121C38.5218 0.324175 37.7391 0 36.9231 0ZM13.8462 29.2308C13.8462 29.6388 13.6841 30.0301 13.3955 30.3186C13.107 30.6071 12.7157 30.7692 12.3077 30.7692C11.8997 30.7692 11.5084 30.6071 11.2198 30.3186C10.9313 30.0301 10.7692 29.6388 10.7692 29.2308V16.9231C10.7692 16.5151 10.9313 16.1237 11.2198 15.8352C11.5084 15.5467 11.8997 15.3846 12.3077 15.3846C12.7157 15.3846 13.107 15.5467 13.3955 15.8352C13.6841 16.1237 13.8462 16.5151 13.8462 16.9231V29.2308ZM12.3077 13.8462C11.8513 13.8462 11.4051 13.7108 11.0256 13.4572C10.6461 13.2037 10.3503 12.8433 10.1757 12.4216C10.001 11.9999 9.9553 11.5359 10.0443 11.0883C10.1334 10.6406 10.3532 10.2294 10.6759 9.90668C10.9986 9.58394 11.4098 9.36415 11.8575 9.27511C12.3051 9.18607 12.7691 9.23177 13.1908 9.40643C13.6125 9.5811 13.9729 9.87688 14.2265 10.2564C14.48 10.6359 14.6154 11.082 14.6154 11.5385C14.6154 12.1505 14.3723 12.7375 13.9395 13.1702C13.5067 13.603 12.9197 13.8462 12.3077 13.8462ZM30.7692 29.2308C30.7692 29.6388 30.6071 30.0301 30.3186 30.3186C30.0301 30.6071 29.6388 30.7692 29.2308 30.7692C28.8227 30.7692 28.4314 30.6071 28.1429 30.3186C27.8544 30.0301 27.6923 29.6388 27.6923 29.2308V22.3077C27.6923 21.2876 27.2871 20.3093 26.5658 19.5881C25.8445 18.8668 24.8662 18.4615 23.8462 18.4615C22.8261 18.4615 21.8478 18.8668 21.1265 19.5881C20.4052 20.3093 20 21.2876 20 22.3077V29.2308C20 29.6388 19.8379 30.0301 19.5494 30.3186C19.2609 30.6071 18.8696 30.7692 18.4615 30.7692C18.0535 30.7692 17.6622 30.6071 17.3737 30.3186C17.0852 30.0301 16.9231 29.6388 16.9231 29.2308V16.9231C16.925 16.5462 17.0651 16.1832 17.3169 15.9029C17.5688 15.6225 17.9147 15.4443 18.2892 15.4021C18.6637 15.3599 19.0406 15.4566 19.3485 15.6738C19.6564 15.8911 19.8739 16.2138 19.9596 16.5808C21.0004 15.8748 22.2138 15.4656 23.4695 15.3972C24.7253 15.3287 25.9759 15.6037 27.0872 16.1924C28.1985 16.7812 29.1284 17.6615 29.7771 18.7389C30.4258 19.8163 30.7688 21.0501 30.7692 22.3077V29.2308Z" fill="#56909D"/>
</svg>
