<svg width="27" height="34" viewBox="0 0 27 34" fill="none" xmlns="http://www.w3.org/2000/svg">
<path d="M13.3333 16.6667C14.25 16.6667 15.035 16.34 15.6883 15.6867C16.3417 15.0333 16.6678 14.2489 16.6667 13.3333C16.6667 12.4167 16.34 11.6317 15.6867 10.9783C15.0333 10.325 14.2489 9.99889 13.3333 10C12.4167 10 11.6317 10.3267 10.9783 10.98C10.325 11.6333 9.99889 12.4178 10 13.3333C10 14.25 10.3267 15.035 10.98 15.6883C11.6333 16.3417 12.4178 16.6678 13.3333 16.6667ZM13.3333 33.3333C8.86111 29.5278 5.52111 25.9933 3.31333 22.73C1.10556 19.4667 0.00111111 16.4456 0 13.6667C0 9.5 1.34056 6.18056 4.02167 3.70833C6.70278 1.23611 9.80667 0 13.3333 0C16.8611 0 19.9656 1.23611 22.6467 3.70833C25.3278 6.18056 26.6678 9.5 26.6667 13.6667C26.6667 16.4444 25.5622 19.4656 23.3533 22.73C21.1444 25.9944 17.8044 29.5289 13.3333 33.3333Z" fill="#56909D"/>
</svg>
