<svg width="33" height="33" viewBox="0 0 33 33" fill="none" xmlns="http://www.w3.org/2000/svg">
<path d="M1 16.5C1 18.5355 1.40092 20.551 2.17987 22.4316C2.95881 24.3121 4.10054 26.0208 5.53984 27.4602C6.97915 28.8995 8.68786 30.0412 10.5684 30.8201C12.449 31.5991 14.4645 32 16.5 32C18.5355 32 20.551 31.5991 22.4316 30.8201C24.3121 30.0412 26.0208 28.8995 27.4602 27.4602C28.8995 26.0208 30.0412 24.3121 30.8201 22.4316C31.5991 20.551 32 18.5355 32 16.5C32 14.4645 31.5991 12.449 30.8201 10.5684C30.0412 8.68786 28.8995 6.97915 27.4602 5.53984C26.0208 4.10054 24.3121 2.95882 22.4316 2.17987C20.551 1.40092 18.5355 1 16.5 1C14.4645 1 12.449 1.40092 10.5684 2.17987C8.68786 2.95882 6.97915 4.10054 5.53984 5.53984C4.10054 6.97915 2.95881 8.68786 2.17987 10.5684C1.40092 12.449 1 14.4645 1 16.5Z" fill="#56909D" stroke="white" stroke-width="2" stroke-linecap="round" stroke-linejoin="round"/>
<path d="M21.6663 9.61108H11.333H13.0552C14.4255 9.61108 15.7397 10.1554 16.7086 11.1244C17.6776 12.0933 18.2219 13.4075 18.2219 14.7778C18.2219 16.148 17.6776 17.4622 16.7086 18.4311C15.7397 19.4001 14.4255 19.9444 13.0552 19.9444H11.333L16.4997 25.1111M11.333 14.7778H21.6663H11.333Z" fill="#56909D"/>
<path d="M21.6663 9.61108H11.333H13.0552C14.4255 9.61108 15.7397 10.1554 16.7086 11.1244C17.6776 12.0933 18.2219 13.4075 18.2219 14.7778C18.2219 16.148 17.6776 17.4622 16.7086 18.4311C15.7397 19.4001 14.4255 19.9444 13.0552 19.9444H11.333L16.4997 25.1111M11.333 14.7778H21.6663" stroke="white" stroke-width="2" stroke-linecap="round" stroke-linejoin="round"/>
</svg>
