<svg width="40" height="40" viewBox="0 0 40 40" fill="none" xmlns="http://www.w3.org/2000/svg">
<path d="M36.9231 0H3.07692C2.26087 0 1.47824 0.383116 0.90121 1.06507C0.324175 1.74702 0 2.67194 0 3.63636V36.3636C0 37.3281 0.324175 38.253 0.90121 38.9349C1.47824 39.6169 2.26087 40 3.07692 40H36.9231C37.7391 40 38.5218 39.6169 39.0988 38.9349C39.6758 38.253 40 37.3281 40 36.3636V3.63636C40 2.67194 39.6758 1.74702 39.0988 1.06507C38.5218 0.383116 37.7391 0 36.9231 0ZM20 21.8182C17.5526 21.8152 15.2062 20.6649 13.4757 18.6197C11.7451 16.5745 10.7718 13.8014 10.7692 10.9091C10.7692 10.4269 10.9313 9.96442 11.2198 9.62344C11.5084 9.28247 11.8997 9.09091 12.3077 9.09091C12.7157 9.09091 13.107 9.28247 13.3955 9.62344C13.6841 9.96442 13.8462 10.4269 13.8462 10.9091C13.8462 12.8379 14.4945 14.6878 15.6486 16.0517C16.8026 17.4156 18.3679 18.1818 20 18.1818C21.6321 18.1818 23.1974 17.4156 24.3514 16.0517C25.5055 14.6878 26.1538 12.8379 26.1538 10.9091C26.1538 10.4269 26.3159 9.96442 26.6045 9.62344C26.893 9.28247 27.2843 9.09091 27.6923 9.09091C28.1003 9.09091 28.4916 9.28247 28.7802 9.62344C29.0687 9.96442 29.2308 10.4269 29.2308 10.9091C29.2282 13.8014 28.2549 16.5745 26.5243 18.6197C24.7938 20.6649 22.4474 21.8152 20 21.8182Z" fill="#56909D"/>
</svg>
