<svg width="1433" height="293" viewBox="0 0 1433 293" fill="none" xmlns="http://www.w3.org/2000/svg">
<path d="M211.92 124C224.115 124 234.211 114.028 231.923 102.05C227.976 81.3889 218.502 62.0298 204.321 46.128C185.206 24.6932 158.874 11.038 130.341 7.76311C101.808 4.48824 73.0676 11.8225 49.5929 28.369C26.1182 44.9156 9.54954 69.5184 3.0425 97.4917C-3.46453 125.465 0.544672 154.855 14.3065 180.063C28.0684 205.271 50.6215 224.537 77.6704 234.192C104.719 243.846 134.374 243.214 160.987 232.416C180.731 224.406 197.777 211.216 210.437 194.417C217.776 184.679 213.118 171.275 202.175 165.893C181.198 155.575 188.542 124 211.92 124Z" fill="#F2F2F2"/>
<path d="M76.5 81C76.5 74.0964 82.0964 68.5 89 68.5H124.726C127.571 68.5 130.33 69.4701 132.549 71.2502L154.822 89.1207C157.779 91.4931 159.5 95.0794 159.5 98.8705V166C159.5 172.904 153.904 178.5 147 178.5H89C82.0964 178.5 76.5 172.904 76.5 166V81Z" fill="#F2F2F2" stroke="#1E5966" stroke-width="5"/>
<path d="M123 68V92C123 96.4183 126.582 100 131 100H159" stroke="#1E5966" stroke-width="5"/>
<path d="M89 116.5H123" stroke="#E9C37D" stroke-width="5" stroke-linecap="round"/>
<path d="M89 140.5H144" stroke="#E9C37D" stroke-width="5" stroke-linecap="round"/>
<circle cx="213" cy="146" r="22" fill="#126678"/>
<path d="M207 144L211.312 149.096C211.984 149.89 213.151 150.037 213.998 149.434L238.5 132" stroke="#E9C37D" stroke-width="5" stroke-linecap="round"/>
<path d="M15.7866 284.571V287H6.35059V284.571H15.7866ZM7.21729 269.227V287H4.15332V269.227H7.21729ZM14.5537 276.648V279.041H6.35059V276.648H14.5537ZM15.7256 269.227V271.668H6.35059V269.227H15.7256ZM25.4058 283.423C25.4058 283.13 25.3325 282.866 25.186 282.63C25.0396 282.386 24.7588 282.166 24.3438 281.971C23.9368 281.775 23.3346 281.596 22.5371 281.434C21.8372 281.279 21.1943 281.096 20.6084 280.884C20.0306 280.665 19.5342 280.4 19.1191 280.091C18.7041 279.782 18.3826 279.415 18.1548 278.992C17.9269 278.569 17.813 278.081 17.813 277.527C17.813 276.99 17.931 276.482 18.167 276.001C18.403 275.521 18.7407 275.098 19.1802 274.732C19.6196 274.366 20.1527 274.077 20.7793 273.865C21.4141 273.654 22.1221 273.548 22.9033 273.548C24.0101 273.548 24.9582 273.735 25.7476 274.109C26.5451 274.476 27.1554 274.976 27.5786 275.611C28.0018 276.237 28.2134 276.945 28.2134 277.735H25.2715C25.2715 277.385 25.182 277.059 25.0029 276.758C24.832 276.449 24.5716 276.201 24.2217 276.014C23.8717 275.818 23.4323 275.721 22.9033 275.721C22.3988 275.721 21.9797 275.802 21.646 275.965C21.3205 276.119 21.0763 276.323 20.9136 276.575C20.759 276.827 20.6816 277.104 20.6816 277.405C20.6816 277.625 20.7223 277.824 20.8037 278.003C20.8932 278.174 21.0397 278.333 21.2432 278.479C21.4466 278.618 21.7233 278.748 22.0732 278.87C22.4313 278.992 22.8789 279.11 23.416 279.224C24.4251 279.436 25.2918 279.708 26.0161 280.042C26.7485 280.368 27.3101 280.791 27.7007 281.312C28.0913 281.824 28.2866 282.475 28.2866 283.265C28.2866 283.851 28.1605 284.388 27.9082 284.876C27.6641 285.356 27.306 285.775 26.834 286.133C26.362 286.483 25.7964 286.756 25.1372 286.951C24.4862 287.146 23.7537 287.244 22.9399 287.244C21.7437 287.244 20.7305 287.033 19.9004 286.609C19.0703 286.178 18.4396 285.629 18.0083 284.961C17.5851 284.286 17.3735 283.586 17.3735 282.862H20.2178C20.2503 283.407 20.4009 283.842 20.6694 284.168C20.9461 284.485 21.2879 284.717 21.6948 284.864C22.1099 285.002 22.5371 285.071 22.9766 285.071C23.5055 285.071 23.9491 285.002 24.3071 284.864C24.6652 284.717 24.9378 284.522 25.125 284.278C25.3122 284.026 25.4058 283.741 25.4058 283.423ZM36.917 273.792V275.94H29.4707V273.792H36.917ZM31.6191 270.557H34.561V283.35C34.561 283.757 34.618 284.07 34.7319 284.29C34.854 284.502 35.0208 284.644 35.2324 284.717C35.444 284.791 35.6922 284.827 35.9771 284.827C36.1805 284.827 36.3758 284.815 36.563 284.791C36.7502 284.766 36.9007 284.742 37.0146 284.717L37.0269 286.963C36.7827 287.037 36.4979 287.102 36.1724 287.159C35.855 287.216 35.4888 287.244 35.0737 287.244C34.3983 287.244 33.8001 287.126 33.2793 286.89C32.7585 286.646 32.3516 286.251 32.0586 285.706C31.7656 285.161 31.6191 284.437 31.6191 283.533V270.557ZM46.6338 284.351V278.052C46.6338 277.58 46.5483 277.173 46.3774 276.832C46.2065 276.49 45.9461 276.225 45.5962 276.038C45.2544 275.851 44.8231 275.757 44.3022 275.757C43.8221 275.757 43.4071 275.839 43.0571 276.001C42.7072 276.164 42.4346 276.384 42.2393 276.661C42.0439 276.937 41.9463 277.251 41.9463 277.601H39.0166C39.0166 277.08 39.1427 276.575 39.395 276.087C39.6473 275.599 40.0135 275.163 40.4937 274.781C40.9738 274.398 41.5475 274.097 42.2148 273.877C42.8822 273.658 43.6309 273.548 44.4609 273.548C45.4538 273.548 46.3327 273.715 47.0977 274.048C47.8708 274.382 48.4771 274.887 48.9165 275.562C49.3641 276.229 49.5879 277.068 49.5879 278.077V283.948C49.5879 284.55 49.6286 285.092 49.71 285.572C49.7995 286.044 49.9256 286.455 50.0884 286.805V287H47.0732C46.9349 286.683 46.825 286.28 46.7437 285.792C46.6704 285.295 46.6338 284.815 46.6338 284.351ZM47.061 278.968L47.0854 280.787H44.9736C44.4284 280.787 43.9482 280.84 43.5332 280.945C43.1182 281.043 42.7723 281.189 42.4956 281.385C42.2189 281.58 42.0114 281.816 41.873 282.093C41.7347 282.369 41.6655 282.683 41.6655 283.033C41.6655 283.383 41.7469 283.704 41.9097 283.997C42.0724 284.282 42.3084 284.506 42.6177 284.668C42.9351 284.831 43.3175 284.913 43.7651 284.913C44.3674 284.913 44.8923 284.791 45.3398 284.546C45.7956 284.294 46.1536 283.989 46.4141 283.631C46.6745 283.265 46.8128 282.919 46.8291 282.593L47.7812 283.899C47.6836 284.233 47.5168 284.591 47.2808 284.974C47.0448 285.356 46.7355 285.722 46.353 286.072C45.9787 286.414 45.527 286.695 44.998 286.915C44.4772 287.134 43.875 287.244 43.1914 287.244C42.3288 287.244 41.5597 287.073 40.8843 286.731C40.2088 286.382 39.6799 285.914 39.2974 285.328C38.9149 284.734 38.7236 284.062 38.7236 283.313C38.7236 282.614 38.8538 281.995 39.1143 281.458C39.3828 280.913 39.7734 280.457 40.2861 280.091C40.807 279.725 41.4417 279.448 42.1904 279.261C42.9391 279.065 43.7936 278.968 44.7539 278.968H47.061ZM52.6763 268.25H55.6182V284.18L55.3374 287H52.6763V268.25ZM64.2363 280.274V280.53C64.2363 281.507 64.1265 282.406 63.9067 283.228C63.6951 284.042 63.3696 284.75 62.9302 285.352C62.4989 285.954 61.9618 286.422 61.3188 286.756C60.6841 287.081 59.9476 287.244 59.1094 287.244C58.2874 287.244 57.5713 287.09 56.9609 286.78C56.3506 286.471 55.8379 286.032 55.4229 285.462C55.016 284.892 54.6864 284.213 54.4341 283.423C54.1818 282.634 54.0028 281.763 53.897 280.811V279.993C54.0028 279.033 54.1818 278.162 54.4341 277.381C54.6864 276.591 55.016 275.912 55.4229 275.342C55.8379 274.764 56.3465 274.321 56.9487 274.012C57.5591 273.702 58.2712 273.548 59.085 273.548C59.9313 273.548 60.6759 273.711 61.3188 274.036C61.9699 274.362 62.5111 274.826 62.9424 275.428C63.3737 276.022 63.6951 276.73 63.9067 277.552C64.1265 278.374 64.2363 279.281 64.2363 280.274ZM61.2944 280.53V280.274C61.2944 279.68 61.2456 279.122 61.1479 278.602C61.0503 278.073 60.8875 277.609 60.6597 277.21C60.4399 276.811 60.1388 276.498 59.7563 276.27C59.382 276.034 58.9141 275.916 58.3525 275.916C57.8317 275.916 57.3841 276.006 57.0098 276.185C56.6354 276.364 56.3221 276.608 56.0698 276.917C55.8175 277.226 55.6182 277.584 55.4717 277.991C55.3333 278.398 55.2397 278.838 55.1909 279.31V281.519C55.2642 282.129 55.4188 282.691 55.6548 283.204C55.8989 283.708 56.2407 284.115 56.6802 284.424C57.1196 284.725 57.6852 284.876 58.377 284.876C58.9222 284.876 59.382 284.766 59.7563 284.546C60.1307 284.327 60.4277 284.021 60.6475 283.631C60.8753 283.232 61.0381 282.768 61.1357 282.239C61.2415 281.71 61.2944 281.141 61.2944 280.53ZM69.876 268.25V287H66.9219V268.25H69.876ZM76.248 273.792V287H73.2939V273.792H76.248ZM73.0986 270.325C73.0986 269.878 73.2451 269.507 73.5381 269.214C73.8392 268.913 74.2542 268.763 74.7832 268.763C75.304 268.763 75.715 268.913 76.0161 269.214C76.3172 269.507 76.4678 269.878 76.4678 270.325C76.4678 270.765 76.3172 271.131 76.0161 271.424C75.715 271.717 75.304 271.863 74.7832 271.863C74.2542 271.863 73.8392 271.717 73.5381 271.424C73.2451 271.131 73.0986 270.765 73.0986 270.325ZM86.8804 283.423C86.8804 283.13 86.8071 282.866 86.6606 282.63C86.5142 282.386 86.2334 282.166 85.8184 281.971C85.4115 281.775 84.8092 281.596 84.0117 281.434C83.3118 281.279 82.6689 281.096 82.083 280.884C81.5052 280.665 81.0088 280.4 80.5938 280.091C80.1787 279.782 79.8573 279.415 79.6294 278.992C79.4015 278.569 79.2876 278.081 79.2876 277.527C79.2876 276.99 79.4056 276.482 79.6416 276.001C79.8776 275.521 80.2153 275.098 80.6548 274.732C81.0942 274.366 81.6273 274.077 82.2539 273.865C82.8887 273.654 83.5967 273.548 84.3779 273.548C85.4847 273.548 86.4328 273.735 87.2222 274.109C88.0197 274.476 88.63 274.976 89.0532 275.611C89.4764 276.237 89.688 276.945 89.688 277.735H86.7461C86.7461 277.385 86.6566 277.059 86.4775 276.758C86.3066 276.449 86.0462 276.201 85.6963 276.014C85.3464 275.818 84.9069 275.721 84.3779 275.721C83.8734 275.721 83.4543 275.802 83.1206 275.965C82.7951 276.119 82.5509 276.323 82.3882 276.575C82.2336 276.827 82.1562 277.104 82.1562 277.405C82.1562 277.625 82.1969 277.824 82.2783 278.003C82.3678 278.174 82.5143 278.333 82.7178 278.479C82.9212 278.618 83.1979 278.748 83.5479 278.87C83.9059 278.992 84.3535 279.11 84.8906 279.224C85.8997 279.436 86.7664 279.708 87.4907 280.042C88.2231 280.368 88.7847 280.791 89.1753 281.312C89.5659 281.824 89.7612 282.475 89.7612 283.265C89.7612 283.851 89.6351 284.388 89.3828 284.876C89.1387 285.356 88.7806 285.775 88.3086 286.133C87.8366 286.483 87.271 286.756 86.6118 286.951C85.9608 287.146 85.2284 287.244 84.4146 287.244C83.2183 287.244 82.2051 287.033 81.375 286.609C80.5449 286.178 79.9142 285.629 79.4829 284.961C79.0597 284.286 78.8481 283.586 78.8481 282.862H81.6924C81.7249 283.407 81.8755 283.842 82.144 284.168C82.4207 284.485 82.7625 284.717 83.1694 284.864C83.5845 285.002 84.0117 285.071 84.4512 285.071C84.9801 285.071 85.4237 285.002 85.7817 284.864C86.1398 284.717 86.4124 284.522 86.5996 284.278C86.7868 284.026 86.8804 283.741 86.8804 283.423ZM95.2422 268.25V287H92.3125V268.25H95.2422ZM94.7295 279.908L93.7773 279.896C93.7855 278.984 93.9116 278.142 94.1558 277.369C94.408 276.596 94.758 275.924 95.2056 275.354C95.6613 274.777 96.2065 274.333 96.8413 274.024C97.4761 273.707 98.18 273.548 98.9531 273.548C99.6042 273.548 100.19 273.637 100.711 273.816C101.24 273.995 101.696 274.284 102.078 274.683C102.461 275.074 102.75 275.586 102.945 276.221C103.148 276.848 103.25 277.613 103.25 278.516V287H100.296V278.492C100.296 277.857 100.202 277.352 100.015 276.978C99.8361 276.604 99.5716 276.335 99.2217 276.172C98.8717 276.001 98.4445 275.916 97.9399 275.916C97.411 275.916 96.943 276.022 96.5361 276.233C96.1374 276.445 95.8037 276.734 95.5352 277.1C95.2666 277.466 95.0632 277.889 94.9248 278.37C94.7946 278.85 94.7295 279.362 94.7295 279.908ZM114.444 269.227L118.57 277.71L122.696 269.227H126.089L120.108 280.457V287H117.02V280.457L111.038 269.227H114.444ZM126.37 280.542V280.262C126.37 279.31 126.508 278.427 126.785 277.613C127.062 276.791 127.461 276.079 127.981 275.477C128.51 274.866 129.153 274.394 129.91 274.061C130.675 273.719 131.538 273.548 132.498 273.548C133.466 273.548 134.329 273.719 135.086 274.061C135.851 274.394 136.498 274.866 137.027 275.477C137.556 276.079 137.959 276.791 138.235 277.613C138.512 278.427 138.65 279.31 138.65 280.262V280.542C138.65 281.495 138.512 282.378 138.235 283.191C137.959 284.005 137.556 284.717 137.027 285.328C136.498 285.93 135.855 286.402 135.098 286.744C134.341 287.077 133.483 287.244 132.522 287.244C131.554 287.244 130.687 287.077 129.922 286.744C129.166 286.402 128.523 285.93 127.994 285.328C127.465 284.717 127.062 284.005 126.785 283.191C126.508 282.378 126.37 281.495 126.37 280.542ZM129.312 280.262V280.542C129.312 281.137 129.373 281.698 129.495 282.227C129.617 282.756 129.808 283.22 130.069 283.619C130.329 284.017 130.663 284.331 131.07 284.559C131.477 284.786 131.961 284.9 132.522 284.9C133.068 284.9 133.54 284.786 133.938 284.559C134.345 284.331 134.679 284.017 134.939 283.619C135.2 283.22 135.391 282.756 135.513 282.227C135.643 281.698 135.708 281.137 135.708 280.542V280.262C135.708 279.676 135.643 279.122 135.513 278.602C135.391 278.073 135.196 277.605 134.927 277.198C134.667 276.791 134.333 276.473 133.926 276.246C133.528 276.01 133.051 275.892 132.498 275.892C131.945 275.892 131.465 276.01 131.058 276.246C130.659 276.473 130.329 276.791 130.069 277.198C129.808 277.605 129.617 278.073 129.495 278.602C129.373 279.122 129.312 279.676 129.312 280.262ZM149.063 283.887V273.792H152.017V287H149.234L149.063 283.887ZM149.478 281.141L150.467 281.116C150.467 282.003 150.369 282.821 150.174 283.57C149.979 284.31 149.677 284.957 149.271 285.511C148.864 286.056 148.343 286.483 147.708 286.792C147.073 287.094 146.312 287.244 145.425 287.244C144.782 287.244 144.192 287.151 143.655 286.963C143.118 286.776 142.654 286.487 142.264 286.097C141.881 285.706 141.584 285.197 141.373 284.571C141.161 283.944 141.055 283.195 141.055 282.325V273.792H143.997V282.349C143.997 282.829 144.054 283.232 144.168 283.558C144.282 283.875 144.437 284.131 144.632 284.327C144.827 284.522 145.055 284.66 145.315 284.742C145.576 284.823 145.853 284.864 146.146 284.864C146.984 284.864 147.643 284.701 148.123 284.375C148.611 284.042 148.957 283.594 149.161 283.033C149.372 282.471 149.478 281.84 149.478 281.141ZM157.986 276.307V287H155.044V273.792H157.852L157.986 276.307ZM162.027 273.707L162.002 276.441C161.823 276.408 161.628 276.384 161.417 276.368C161.213 276.351 161.01 276.343 160.806 276.343C160.302 276.343 159.858 276.417 159.476 276.563C159.093 276.701 158.772 276.905 158.511 277.173C158.259 277.434 158.064 277.751 157.925 278.125C157.787 278.5 157.706 278.919 157.681 279.383L157.01 279.432C157.01 278.602 157.091 277.833 157.254 277.125C157.417 276.417 157.661 275.794 157.986 275.257C158.32 274.72 158.735 274.301 159.231 274C159.736 273.698 160.318 273.548 160.977 273.548C161.156 273.548 161.347 273.564 161.551 273.597C161.762 273.629 161.921 273.666 162.027 273.707ZM177.139 280.372H172.513V277.942H177.139C177.945 277.942 178.596 277.812 179.092 277.552C179.589 277.291 179.951 276.933 180.179 276.478C180.415 276.014 180.533 275.485 180.533 274.891C180.533 274.329 180.415 273.804 180.179 273.316C179.951 272.819 179.589 272.421 179.092 272.12C178.596 271.819 177.945 271.668 177.139 271.668H173.453V287H170.389V269.227H177.139C178.514 269.227 179.682 269.471 180.643 269.959C181.611 270.439 182.347 271.106 182.852 271.961C183.357 272.807 183.609 273.776 183.609 274.866C183.609 276.014 183.357 276.998 182.852 277.82C182.347 278.642 181.611 279.273 180.643 279.712C179.682 280.152 178.514 280.372 177.139 280.372ZM189.017 276.307V287H186.075V273.792H188.882L189.017 276.307ZM193.057 273.707L193.033 276.441C192.854 276.408 192.658 276.384 192.447 276.368C192.243 276.351 192.04 276.343 191.836 276.343C191.332 276.343 190.888 276.417 190.506 276.563C190.123 276.701 189.802 276.905 189.542 277.173C189.289 277.434 189.094 277.751 188.956 278.125C188.817 278.5 188.736 278.919 188.711 279.383L188.04 279.432C188.04 278.602 188.121 277.833 188.284 277.125C188.447 276.417 188.691 275.794 189.017 275.257C189.35 274.72 189.765 274.301 190.262 274C190.766 273.698 191.348 273.548 192.007 273.548C192.186 273.548 192.378 273.564 192.581 273.597C192.793 273.629 192.951 273.666 193.057 273.707ZM194.021 280.542V280.262C194.021 279.31 194.16 278.427 194.437 277.613C194.713 276.791 195.112 276.079 195.633 275.477C196.162 274.866 196.805 274.394 197.562 274.061C198.326 273.719 199.189 273.548 200.149 273.548C201.118 273.548 201.98 273.719 202.737 274.061C203.502 274.394 204.149 274.866 204.678 275.477C205.207 276.079 205.61 276.791 205.887 277.613C206.163 278.427 206.302 279.31 206.302 280.262V280.542C206.302 281.495 206.163 282.378 205.887 283.191C205.61 284.005 205.207 284.717 204.678 285.328C204.149 285.93 203.506 286.402 202.75 286.744C201.993 287.077 201.134 287.244 200.174 287.244C199.205 287.244 198.339 287.077 197.574 286.744C196.817 286.402 196.174 285.93 195.645 285.328C195.116 284.717 194.713 284.005 194.437 283.191C194.16 282.378 194.021 281.495 194.021 280.542ZM196.963 280.262V280.542C196.963 281.137 197.024 281.698 197.146 282.227C197.269 282.756 197.46 283.22 197.72 283.619C197.981 284.017 198.314 284.331 198.721 284.559C199.128 284.786 199.612 284.9 200.174 284.9C200.719 284.9 201.191 284.786 201.59 284.559C201.997 284.331 202.33 284.017 202.591 283.619C202.851 283.22 203.042 282.756 203.165 282.227C203.295 281.698 203.36 281.137 203.36 280.542V280.262C203.36 279.676 203.295 279.122 203.165 278.602C203.042 278.073 202.847 277.605 202.579 277.198C202.318 276.791 201.985 276.473 201.578 276.246C201.179 276.01 200.703 275.892 200.149 275.892C199.596 275.892 199.116 276.01 198.709 276.246C198.31 276.473 197.981 276.791 197.72 277.198C197.46 277.605 197.269 278.073 197.146 278.602C197.024 279.122 196.963 279.676 196.963 280.262ZM212.552 287H209.598V272.938C209.598 271.871 209.809 270.972 210.232 270.24C210.664 269.507 211.278 268.95 212.076 268.567C212.881 268.185 213.838 267.994 214.944 267.994C215.595 267.994 216.222 268.063 216.824 268.201C217.435 268.34 218.065 268.514 218.716 268.726L218.265 271.119C217.85 270.98 217.39 270.85 216.885 270.728C216.381 270.598 215.799 270.533 215.14 270.533C214.253 270.533 213.597 270.736 213.174 271.143C212.759 271.542 212.552 272.14 212.552 272.938V287ZM215.201 273.792V275.94H207.571V273.792H215.201ZM220.108 273.792V287H217.166V273.792H220.108ZM226.541 268.25V287H223.587V268.25H226.541ZM235.586 287.244C234.61 287.244 233.727 287.085 232.938 286.768C232.156 286.443 231.489 285.991 230.936 285.413C230.39 284.835 229.971 284.156 229.678 283.375C229.385 282.593 229.239 281.751 229.239 280.848V280.359C229.239 279.326 229.389 278.39 229.69 277.552C229.992 276.714 230.411 275.997 230.948 275.403C231.485 274.801 232.12 274.341 232.852 274.024C233.584 273.707 234.378 273.548 235.232 273.548C236.176 273.548 237.002 273.707 237.71 274.024C238.418 274.341 239.004 274.789 239.468 275.367C239.94 275.936 240.29 276.616 240.518 277.405C240.754 278.195 240.872 279.065 240.872 280.018V281.275H230.667V279.163H237.967V278.931C237.951 278.402 237.845 277.906 237.649 277.442C237.462 276.978 237.173 276.604 236.783 276.319C236.392 276.034 235.871 275.892 235.22 275.892C234.732 275.892 234.297 275.997 233.914 276.209C233.54 276.412 233.226 276.709 232.974 277.1C232.722 277.491 232.527 277.963 232.388 278.516C232.258 279.061 232.193 279.676 232.193 280.359V280.848C232.193 281.425 232.27 281.963 232.425 282.459C232.588 282.947 232.824 283.375 233.133 283.741C233.442 284.107 233.816 284.396 234.256 284.607C234.695 284.811 235.196 284.913 235.757 284.913C236.465 284.913 237.096 284.77 237.649 284.485C238.203 284.201 238.683 283.798 239.09 283.277L240.64 284.778C240.355 285.193 239.985 285.592 239.529 285.975C239.074 286.349 238.516 286.654 237.857 286.89C237.206 287.126 236.449 287.244 235.586 287.244Z" fill="#1E5966"/>
<path d="M809.92 124C822.115 124 832.211 114.028 829.923 102.05C825.976 81.3889 816.502 62.0298 802.321 46.128C783.206 24.6932 756.874 11.038 728.341 7.76311C699.808 4.48824 671.068 11.8225 647.593 28.369C624.118 44.9156 607.55 69.5184 601.043 97.4917C594.535 125.465 598.545 154.855 612.307 180.063C626.068 205.271 648.621 224.537 675.67 234.192C702.719 243.846 732.374 243.214 758.987 232.416C778.731 224.406 795.777 211.216 808.437 194.417C815.776 184.679 811.118 171.275 800.175 165.893C779.198 155.575 786.542 124 809.92 124Z" fill="#F2F2F2"/>
<circle cx="811" cy="146" r="22" fill="#126678"/>
<path d="M805 144L809.312 149.096C809.984 149.89 811.151 150.037 811.998 149.434L836.5 132" stroke="#E9C37D" stroke-width="5" stroke-linecap="round"/>
<path d="M661.32 281.214H664.372C664.274 282.378 663.949 283.415 663.396 284.327C662.842 285.23 662.065 285.942 661.064 286.463C660.063 286.984 658.846 287.244 657.414 287.244C656.315 287.244 655.327 287.049 654.448 286.658C653.569 286.259 652.816 285.698 652.189 284.974C651.563 284.241 651.083 283.358 650.749 282.325C650.424 281.291 650.261 280.136 650.261 278.858V277.381C650.261 276.103 650.428 274.948 650.761 273.914C651.103 272.881 651.591 271.998 652.226 271.265C652.861 270.525 653.622 269.959 654.509 269.568C655.404 269.178 656.409 268.982 657.524 268.982C658.94 268.982 660.136 269.243 661.113 269.764C662.089 270.285 662.846 271.005 663.383 271.924C663.929 272.844 664.262 273.898 664.384 275.086H661.333C661.251 274.321 661.072 273.666 660.795 273.121C660.527 272.575 660.128 272.16 659.599 271.875C659.07 271.583 658.378 271.436 657.524 271.436C656.824 271.436 656.214 271.566 655.693 271.827C655.172 272.087 654.737 272.47 654.387 272.974C654.037 273.479 653.772 274.101 653.593 274.842C653.422 275.574 653.337 276.412 653.337 277.356V278.858C653.337 279.753 653.414 280.567 653.569 281.299C653.732 282.024 653.976 282.646 654.301 283.167C654.635 283.688 655.058 284.091 655.571 284.375C656.083 284.66 656.698 284.803 657.414 284.803C658.285 284.803 658.989 284.664 659.526 284.388C660.071 284.111 660.482 283.708 660.759 283.179C661.044 282.642 661.231 281.987 661.32 281.214ZM669.768 268.25V287H666.838V268.25H669.768ZM669.255 279.908L668.303 279.896C668.311 278.984 668.437 278.142 668.681 277.369C668.933 276.596 669.283 275.924 669.731 275.354C670.187 274.777 670.732 274.333 671.367 274.024C672.001 273.707 672.705 273.548 673.479 273.548C674.13 273.548 674.715 273.637 675.236 273.816C675.765 273.995 676.221 274.284 676.604 274.683C676.986 275.074 677.275 275.586 677.47 276.221C677.674 276.848 677.775 277.613 677.775 278.516V287H674.821V278.492C674.821 277.857 674.728 277.352 674.541 276.978C674.361 276.604 674.097 276.335 673.747 276.172C673.397 276.001 672.97 275.916 672.465 275.916C671.936 275.916 671.468 276.022 671.062 276.233C670.663 276.445 670.329 276.734 670.061 277.1C669.792 277.466 669.589 277.889 669.45 278.37C669.32 278.85 669.255 279.362 669.255 279.908ZM688.2 284.351V278.052C688.2 277.58 688.115 277.173 687.944 276.832C687.773 276.49 687.513 276.225 687.163 276.038C686.821 275.851 686.389 275.757 685.869 275.757C685.389 275.757 684.973 275.839 684.624 276.001C684.274 276.164 684.001 276.384 683.806 276.661C683.61 276.937 683.513 277.251 683.513 277.601H680.583C680.583 277.08 680.709 276.575 680.961 276.087C681.214 275.599 681.58 275.163 682.06 274.781C682.54 274.398 683.114 274.097 683.781 273.877C684.449 273.658 685.197 273.548 686.027 273.548C687.02 273.548 687.899 273.715 688.664 274.048C689.437 274.382 690.043 274.887 690.483 275.562C690.931 276.229 691.154 277.068 691.154 278.077V283.948C691.154 284.55 691.195 285.092 691.276 285.572C691.366 286.044 691.492 286.455 691.655 286.805V287H688.64C688.501 286.683 688.391 286.28 688.31 285.792C688.237 285.295 688.2 284.815 688.2 284.351ZM688.627 278.968L688.652 280.787H686.54C685.995 280.787 685.515 280.84 685.1 280.945C684.685 281.043 684.339 281.189 684.062 281.385C683.785 281.58 683.578 281.816 683.439 282.093C683.301 282.369 683.232 282.683 683.232 283.033C683.232 283.383 683.313 283.704 683.476 283.997C683.639 284.282 683.875 284.506 684.184 284.668C684.501 284.831 684.884 284.913 685.332 284.913C685.934 284.913 686.459 284.791 686.906 284.546C687.362 284.294 687.72 283.989 687.98 283.631C688.241 283.265 688.379 282.919 688.396 282.593L689.348 283.899C689.25 284.233 689.083 284.591 688.847 284.974C688.611 285.356 688.302 285.722 687.919 286.072C687.545 286.414 687.093 286.695 686.564 286.915C686.044 287.134 685.441 287.244 684.758 287.244C683.895 287.244 683.126 287.073 682.451 286.731C681.775 286.382 681.246 285.914 680.864 285.328C680.481 284.734 680.29 284.062 680.29 283.313C680.29 282.614 680.42 281.995 680.681 281.458C680.949 280.913 681.34 280.457 681.853 280.091C682.373 279.725 683.008 279.448 683.757 279.261C684.506 279.065 685.36 278.968 686.32 278.968H688.627ZM700.285 273.792V275.94H692.839V273.792H700.285ZM694.987 270.557H697.929V283.35C697.929 283.757 697.986 284.07 698.1 284.29C698.222 284.502 698.389 284.644 698.601 284.717C698.812 284.791 699.06 284.827 699.345 284.827C699.549 284.827 699.744 284.815 699.931 284.791C700.118 284.766 700.269 284.742 700.383 284.717L700.395 286.963C700.151 287.037 699.866 287.102 699.541 287.159C699.223 287.216 698.857 287.244 698.442 287.244C697.766 287.244 697.168 287.126 696.647 286.89C696.127 286.646 695.72 286.251 695.427 285.706C695.134 285.161 694.987 284.437 694.987 283.533V270.557ZM714.238 287H710.441L710.466 284.571H714.238C715.336 284.571 716.256 284.331 716.997 283.851C717.745 283.37 718.307 282.683 718.681 281.788C719.064 280.892 719.255 279.826 719.255 278.589V277.625C719.255 276.665 719.145 275.814 718.925 275.074C718.714 274.333 718.396 273.711 717.973 273.206C717.558 272.701 717.045 272.319 716.435 272.059C715.833 271.798 715.137 271.668 714.348 271.668H710.368V269.227H714.348C715.528 269.227 716.606 269.426 717.583 269.825C718.559 270.215 719.401 270.781 720.109 271.521C720.826 272.262 721.375 273.149 721.757 274.183C722.14 275.216 722.331 276.372 722.331 277.649V278.589C722.331 279.867 722.14 281.023 721.757 282.056C721.375 283.09 720.826 283.977 720.109 284.717C719.393 285.45 718.539 286.015 717.546 286.414C716.561 286.805 715.458 287 714.238 287ZM712.138 269.227V287H709.074V269.227H712.138ZM728.264 273.792V287H725.31V273.792H728.264ZM725.114 270.325C725.114 269.878 725.261 269.507 725.554 269.214C725.855 268.913 726.27 268.763 726.799 268.763C727.32 268.763 727.731 268.913 728.032 269.214C728.333 269.507 728.483 269.878 728.483 270.325C728.483 270.765 728.333 271.131 728.032 271.424C727.731 271.717 727.32 271.863 726.799 271.863C726.27 271.863 725.855 271.717 725.554 271.424C725.261 271.131 725.114 270.765 725.114 270.325ZM734.44 276.307V287H731.499V273.792H734.306L734.44 276.307ZM738.481 273.707L738.457 276.441C738.278 276.408 738.082 276.384 737.871 276.368C737.667 276.351 737.464 276.343 737.26 276.343C736.756 276.343 736.312 276.417 735.93 276.563C735.547 276.701 735.226 276.905 734.965 277.173C734.713 277.434 734.518 277.751 734.379 278.125C734.241 278.5 734.16 278.919 734.135 279.383L733.464 279.432C733.464 278.602 733.545 277.833 733.708 277.125C733.871 276.417 734.115 275.794 734.44 275.257C734.774 274.72 735.189 274.301 735.686 274C736.19 273.698 736.772 273.548 737.431 273.548C737.61 273.548 737.801 273.564 738.005 273.597C738.216 273.629 738.375 273.666 738.481 273.707ZM745.903 287.244C744.926 287.244 744.043 287.085 743.254 286.768C742.473 286.443 741.805 285.991 741.252 285.413C740.707 284.835 740.288 284.156 739.995 283.375C739.702 282.593 739.555 281.751 739.555 280.848V280.359C739.555 279.326 739.706 278.39 740.007 277.552C740.308 276.714 740.727 275.997 741.264 275.403C741.801 274.801 742.436 274.341 743.168 274.024C743.901 273.707 744.694 273.548 745.549 273.548C746.493 273.548 747.319 273.707 748.027 274.024C748.735 274.341 749.321 274.789 749.785 275.367C750.257 275.936 750.607 276.616 750.834 277.405C751.07 278.195 751.188 279.065 751.188 280.018V281.275H740.983V279.163H748.283V278.931C748.267 278.402 748.161 277.906 747.966 277.442C747.779 276.978 747.49 276.604 747.099 276.319C746.708 276.034 746.188 275.892 745.537 275.892C745.048 275.892 744.613 275.997 744.23 276.209C743.856 276.412 743.543 276.709 743.291 277.1C743.038 277.491 742.843 277.963 742.705 278.516C742.574 279.061 742.509 279.676 742.509 280.359V280.848C742.509 281.425 742.587 281.963 742.741 282.459C742.904 282.947 743.14 283.375 743.449 283.741C743.758 284.107 744.133 284.396 744.572 284.607C745.012 284.811 745.512 284.913 746.074 284.913C746.782 284.913 747.412 284.77 747.966 284.485C748.519 284.201 748.999 283.798 749.406 283.277L750.957 284.778C750.672 285.193 750.301 285.592 749.846 285.975C749.39 286.349 748.833 286.654 748.173 286.89C747.522 287.126 746.765 287.244 745.903 287.244ZM758.879 284.9C759.359 284.9 759.79 284.807 760.173 284.62C760.563 284.424 760.877 284.156 761.113 283.814C761.357 283.472 761.491 283.077 761.516 282.63H764.287C764.27 283.484 764.018 284.262 763.53 284.961C763.042 285.661 762.395 286.219 761.589 286.634C760.783 287.041 759.892 287.244 758.916 287.244C757.906 287.244 757.028 287.073 756.279 286.731C755.53 286.382 754.908 285.901 754.411 285.291C753.915 284.681 753.54 283.977 753.288 283.179C753.044 282.382 752.922 281.527 752.922 280.616V280.188C752.922 279.277 753.044 278.423 753.288 277.625C753.54 276.819 753.915 276.111 754.411 275.501C754.908 274.891 755.53 274.415 756.279 274.073C757.028 273.723 757.902 273.548 758.903 273.548C759.961 273.548 760.889 273.759 761.687 274.183C762.484 274.598 763.111 275.18 763.566 275.928C764.03 276.669 764.27 277.531 764.287 278.516H761.516C761.491 278.028 761.369 277.588 761.149 277.198C760.938 276.799 760.637 276.482 760.246 276.246C759.864 276.01 759.404 275.892 758.867 275.892C758.273 275.892 757.78 276.014 757.39 276.258C756.999 276.494 756.694 276.819 756.474 277.234C756.254 277.641 756.096 278.101 755.998 278.614C755.909 279.118 755.864 279.643 755.864 280.188V280.616C755.864 281.161 755.909 281.69 755.998 282.203C756.088 282.715 756.242 283.175 756.462 283.582C756.69 283.981 756.999 284.302 757.39 284.546C757.78 284.782 758.277 284.9 758.879 284.9ZM772.6 273.792V275.94H765.153V273.792H772.6ZM767.302 270.557H770.244V283.35C770.244 283.757 770.301 284.07 770.415 284.29C770.537 284.502 770.703 284.644 770.915 284.717C771.127 284.791 771.375 284.827 771.66 284.827C771.863 284.827 772.058 284.815 772.246 284.791C772.433 284.766 772.583 284.742 772.697 284.717L772.709 286.963C772.465 287.037 772.181 287.102 771.855 287.159C771.538 287.216 771.171 287.244 770.756 287.244C770.081 287.244 769.483 287.126 768.962 286.89C768.441 286.646 768.034 286.251 767.741 285.706C767.448 285.161 767.302 284.437 767.302 283.533V270.557ZM778.02 268.25V287H775.065V268.25H778.02ZM785.075 285.56L788.664 273.792H791.813L786.516 289.014C786.394 289.34 786.235 289.694 786.04 290.076C785.844 290.459 785.588 290.821 785.271 291.163C784.961 291.513 784.575 291.793 784.111 292.005C783.647 292.225 783.085 292.334 782.426 292.334C782.166 292.334 781.914 292.31 781.669 292.261C781.433 292.221 781.21 292.176 780.998 292.127L780.986 289.881C781.067 289.889 781.165 289.897 781.279 289.905C781.401 289.913 781.499 289.917 781.572 289.917C782.06 289.917 782.467 289.856 782.792 289.734C783.118 289.62 783.382 289.433 783.586 289.173C783.798 288.912 783.977 288.562 784.123 288.123L785.075 285.56ZM783.049 273.792L786.186 283.68L786.711 286.78L784.672 287.305L779.875 273.792H783.049Z" fill="#1E5966"/>
<mask id="path-13-inside-1_200_232" fill="white">
<path fill-rule="evenodd" clip-rule="evenodd" d="M715.208 172.416C742.937 172.416 765.416 149.937 765.416 122.208C765.416 94.4789 742.937 72 715.208 72C687.479 72 665 94.4789 665 122.208C665 131.802 667.691 140.768 672.36 148.392C672.883 149.246 673.104 150.255 672.942 151.244L669.617 171.587C669.12 174.625 672.1 177.062 674.98 175.973L693.75 168.874C694.723 168.506 695.798 168.538 696.766 168.921C702.475 171.176 708.697 172.416 715.208 172.416Z"/>
</mask>
<path fill-rule="evenodd" clip-rule="evenodd" d="M715.208 172.416C742.937 172.416 765.416 149.937 765.416 122.208C765.416 94.4789 742.937 72 715.208 72C687.479 72 665 94.4789 665 122.208C665 131.802 667.691 140.768 672.36 148.392C672.883 149.246 673.104 150.255 672.942 151.244L669.617 171.587C669.12 174.625 672.1 177.062 674.98 175.973L693.75 168.874C694.723 168.506 695.798 168.538 696.766 168.921C702.475 171.176 708.697 172.416 715.208 172.416Z" fill="#F2F2F2"/>
<path d="M693.75 168.874L695.519 173.551L693.75 168.874ZM669.617 171.587L664.683 170.78L669.617 171.587ZM672.36 148.392L668.096 151.003L672.36 148.392ZM672.942 151.244L677.877 152.05L672.942 151.244ZM760.416 122.208C760.416 147.176 740.176 167.416 715.208 167.416V177.416C745.698 177.416 770.416 152.698 770.416 122.208H760.416ZM715.208 77C740.176 77 760.416 97.2403 760.416 122.208H770.416C770.416 91.7174 745.698 67 715.208 67V77ZM670 122.208C670 97.2403 690.24 77 715.208 77V67C684.717 67 660 91.7174 660 122.208H670ZM676.624 145.78C672.423 138.92 670 130.855 670 122.208H660C660 132.75 662.96 142.616 668.096 151.003L676.624 145.78ZM674.552 172.393L677.877 152.05L668.008 150.437L664.683 170.78L674.552 172.393ZM691.982 164.197L673.211 171.296L676.749 180.65L695.519 173.551L691.982 164.197ZM715.208 167.416C709.336 167.416 703.737 166.299 698.603 164.27L694.928 173.571C701.213 176.054 708.057 177.416 715.208 177.416V167.416ZM695.519 173.551C695.25 173.652 695.037 173.614 694.928 173.571L698.603 164.27C696.56 163.463 694.197 163.359 691.982 164.197L695.519 173.551ZM664.683 170.78C663.565 177.618 670.268 183.101 676.749 180.65L673.211 171.296C673.931 171.024 674.676 171.633 674.552 172.393L664.683 170.78ZM668.096 151.003C668.036 150.905 667.963 150.71 668.008 150.437L677.877 152.05C678.244 149.8 677.73 147.586 676.624 145.78L668.096 151.003Z" fill="#1E5966" mask="url(#path-13-inside-1_200_232)"/>
<circle cx="697.949" cy="123.777" r="4.70699" fill="#E9C37D"/>
<circle cx="715.208" cy="123.777" r="4.70699" fill="#E9C37D"/>
<circle cx="732.467" cy="123.777" r="4.70699" fill="#E9C37D"/>
<path d="M1403.92 124C1416.11 124 1426.21 114.028 1423.92 102.05C1419.98 81.3889 1410.5 62.0298 1396.32 46.128C1377.21 24.6932 1350.87 11.038 1322.34 7.76311C1293.81 4.48824 1265.07 11.8225 1241.59 28.369C1218.12 44.9156 1201.55 69.5184 1195.04 97.4917C1188.54 125.465 1192.54 154.855 1206.31 180.063C1220.07 205.271 1242.62 224.537 1269.67 234.192C1296.72 243.846 1326.37 243.214 1352.99 232.416C1372.73 224.406 1389.78 211.216 1402.44 194.417C1409.78 184.679 1405.12 171.275 1394.18 165.893C1373.2 155.575 1380.54 124 1403.92 124Z" fill="#F2F2F2"/>
<circle cx="1405" cy="146" r="22" fill="#126678"/>
<path d="M1399 144L1403.31 149.096C1403.98 149.89 1405.15 150.037 1406 149.434L1430.5 132" stroke="#E9C37D" stroke-width="5" stroke-linecap="round"/>
<path d="M1240.92 277.918V284.705C1240.66 285.039 1240.27 285.405 1239.73 285.804C1239.2 286.194 1238.5 286.532 1237.62 286.817C1236.74 287.102 1235.65 287.244 1234.34 287.244C1233.22 287.244 1232.2 287.057 1231.27 286.683C1230.34 286.3 1229.54 285.743 1228.87 285.01C1228.2 284.278 1227.68 283.387 1227.32 282.337C1226.95 281.279 1226.77 280.075 1226.77 278.724V277.491C1226.77 276.148 1226.93 274.952 1227.27 273.902C1227.61 272.844 1228.1 271.949 1228.73 271.216C1229.37 270.484 1230.13 269.931 1231.03 269.556C1231.93 269.174 1232.95 268.982 1234.09 268.982C1235.55 268.982 1236.75 269.227 1237.71 269.715C1238.67 270.195 1239.41 270.862 1239.93 271.717C1240.45 272.571 1240.78 273.548 1240.92 274.646H1237.91C1237.82 274.028 1237.62 273.475 1237.34 272.986C1237.06 272.498 1236.66 272.116 1236.14 271.839C1235.63 271.554 1234.96 271.412 1234.14 271.412C1233.43 271.412 1232.81 271.546 1232.27 271.814C1231.74 272.083 1231.29 272.478 1230.93 272.999C1230.58 273.519 1230.32 274.154 1230.14 274.903C1229.96 275.652 1229.87 276.506 1229.87 277.466V278.724C1229.87 279.7 1229.97 280.567 1230.17 281.324C1230.39 282.081 1230.69 282.719 1231.08 283.24C1231.48 283.761 1231.96 284.156 1232.53 284.424C1233.1 284.685 1233.74 284.815 1234.46 284.815C1235.16 284.815 1235.73 284.758 1236.18 284.644C1236.63 284.522 1236.98 284.38 1237.24 284.217C1237.51 284.046 1237.72 283.883 1237.86 283.729V280.201H1234.17V277.918H1240.92ZM1249.84 287.244C1248.86 287.244 1247.98 287.085 1247.19 286.768C1246.41 286.443 1245.74 285.991 1245.19 285.413C1244.64 284.835 1244.22 284.156 1243.93 283.375C1243.64 282.593 1243.49 281.751 1243.49 280.848V280.359C1243.49 279.326 1243.64 278.39 1243.94 277.552C1244.24 276.714 1244.66 275.997 1245.2 275.403C1245.74 274.801 1246.37 274.341 1247.1 274.024C1247.84 273.707 1248.63 273.548 1249.49 273.548C1250.43 273.548 1251.26 273.707 1251.96 274.024C1252.67 274.341 1253.26 274.789 1253.72 275.367C1254.19 275.936 1254.54 276.616 1254.77 277.405C1255.01 278.195 1255.12 279.065 1255.12 280.018V281.275H1244.92V279.163H1252.22V278.931C1252.2 278.402 1252.1 277.906 1251.9 277.442C1251.72 276.978 1251.43 276.604 1251.04 276.319C1250.65 276.034 1250.12 275.892 1249.47 275.892C1248.98 275.892 1248.55 275.997 1248.17 276.209C1247.79 276.412 1247.48 276.709 1247.23 277.1C1246.97 277.491 1246.78 277.963 1246.64 278.516C1246.51 279.061 1246.45 279.676 1246.45 280.359V280.848C1246.45 281.425 1246.52 281.963 1246.68 282.459C1246.84 282.947 1247.08 283.375 1247.39 283.741C1247.69 284.107 1248.07 284.396 1248.51 284.607C1248.95 284.811 1249.45 284.913 1250.01 284.913C1250.72 284.913 1251.35 284.77 1251.9 284.485C1252.46 284.201 1252.94 283.798 1253.34 283.277L1254.89 284.778C1254.61 285.193 1254.24 285.592 1253.78 285.975C1253.33 286.349 1252.77 286.654 1252.11 286.89C1251.46 287.126 1250.7 287.244 1249.84 287.244ZM1263.47 273.792V275.94H1256.03V273.792H1263.47ZM1258.18 270.557H1261.12V283.35C1261.12 283.757 1261.18 284.07 1261.29 284.29C1261.41 284.502 1261.58 284.644 1261.79 284.717C1262 284.791 1262.25 284.827 1262.53 284.827C1262.74 284.827 1262.93 284.815 1263.12 284.791C1263.31 284.766 1263.46 284.742 1263.57 284.717L1263.58 286.963C1263.34 287.037 1263.06 287.102 1262.73 287.159C1262.41 287.216 1262.05 287.244 1261.63 287.244C1260.96 287.244 1260.36 287.126 1259.84 286.89C1259.32 286.646 1258.91 286.251 1258.62 285.706C1258.32 285.161 1258.18 284.437 1258.18 283.533V270.557ZM1279.58 281.666V269.227H1282.63V281.666C1282.63 282.846 1282.38 283.851 1281.87 284.681C1281.37 285.511 1280.68 286.146 1279.81 286.585C1278.94 287.024 1277.95 287.244 1276.84 287.244C1275.71 287.244 1274.71 287.053 1273.83 286.67C1272.96 286.288 1272.27 285.702 1271.78 284.913C1271.28 284.123 1271.03 283.122 1271.03 281.91H1274.11C1274.11 282.61 1274.22 283.175 1274.44 283.606C1274.66 284.03 1274.98 284.339 1275.39 284.534C1275.8 284.721 1276.29 284.815 1276.84 284.815C1277.37 284.815 1277.84 284.697 1278.25 284.461C1278.66 284.217 1278.99 283.863 1279.22 283.399C1279.46 282.927 1279.58 282.349 1279.58 281.666ZM1285.3 280.542V280.262C1285.3 279.31 1285.44 278.427 1285.72 277.613C1285.99 276.791 1286.39 276.079 1286.91 275.477C1287.44 274.866 1288.08 274.394 1288.84 274.061C1289.61 273.719 1290.47 273.548 1291.43 273.548C1292.4 273.548 1293.26 273.719 1294.02 274.061C1294.78 274.394 1295.43 274.866 1295.96 275.477C1296.49 276.079 1296.89 276.791 1297.17 277.613C1297.44 278.427 1297.58 279.31 1297.58 280.262V280.542C1297.58 281.495 1297.44 282.378 1297.17 283.191C1296.89 284.005 1296.49 284.717 1295.96 285.328C1295.43 285.93 1294.79 286.402 1294.03 286.744C1293.27 287.077 1292.41 287.244 1291.45 287.244C1290.48 287.244 1289.62 287.077 1288.85 286.744C1288.1 286.402 1287.45 285.93 1286.92 285.328C1286.4 284.717 1285.99 284.005 1285.72 283.191C1285.44 282.378 1285.3 281.495 1285.3 280.542ZM1288.24 280.262V280.542C1288.24 281.137 1288.3 281.698 1288.43 282.227C1288.55 282.756 1288.74 283.22 1289 283.619C1289.26 284.017 1289.59 284.331 1290 284.559C1290.41 284.786 1290.89 284.9 1291.45 284.9C1292 284.9 1292.47 284.786 1292.87 284.559C1293.28 284.331 1293.61 284.017 1293.87 283.619C1294.13 283.22 1294.32 282.756 1294.44 282.227C1294.57 281.698 1294.64 281.137 1294.64 280.542V280.262C1294.64 279.676 1294.57 279.122 1294.44 278.602C1294.32 278.073 1294.13 277.605 1293.86 277.198C1293.6 276.791 1293.26 276.473 1292.86 276.246C1292.46 276.01 1291.98 275.892 1291.43 275.892C1290.88 275.892 1290.4 276.01 1289.99 276.246C1289.59 276.473 1289.26 276.791 1289 277.198C1288.74 277.605 1288.55 278.073 1288.43 278.602C1288.3 279.122 1288.24 279.676 1288.24 280.262ZM1300.06 268.25H1303V284.18L1302.72 287H1300.06V268.25ZM1311.62 280.274V280.53C1311.62 281.507 1311.51 282.406 1311.29 283.228C1311.08 284.042 1310.75 284.75 1310.31 285.352C1309.88 285.954 1309.34 286.422 1308.7 286.756C1308.07 287.081 1307.33 287.244 1306.49 287.244C1305.67 287.244 1304.95 287.09 1304.34 286.78C1303.73 286.471 1303.22 286.032 1302.81 285.462C1302.4 284.892 1302.07 284.213 1301.82 283.423C1301.56 282.634 1301.39 281.763 1301.28 280.811V279.993C1301.39 279.033 1301.56 278.162 1301.82 277.381C1302.07 276.591 1302.4 275.912 1302.81 275.342C1303.22 274.764 1303.73 274.321 1304.33 274.012C1304.94 273.702 1305.65 273.548 1306.47 273.548C1307.31 273.548 1308.06 273.711 1308.7 274.036C1309.35 274.362 1309.89 274.826 1310.33 275.428C1310.76 276.022 1311.08 276.73 1311.29 277.552C1311.51 278.374 1311.62 279.281 1311.62 280.274ZM1308.68 280.53V280.274C1308.68 279.68 1308.63 279.122 1308.53 278.602C1308.43 278.073 1308.27 277.609 1308.04 277.21C1307.82 276.811 1307.52 276.498 1307.14 276.27C1306.76 276.034 1306.3 275.916 1305.74 275.916C1305.21 275.916 1304.77 276.006 1304.39 276.185C1304.02 276.364 1303.7 276.608 1303.45 276.917C1303.2 277.226 1303 277.584 1302.85 277.991C1302.72 278.398 1302.62 278.838 1302.57 279.31V281.519C1302.65 282.129 1302.8 282.691 1303.04 283.204C1303.28 283.708 1303.62 284.115 1304.06 284.424C1304.5 284.725 1305.07 284.876 1305.76 284.876C1306.31 284.876 1306.76 284.766 1307.14 284.546C1307.51 284.327 1307.81 284.021 1308.03 283.631C1308.26 283.232 1308.42 282.768 1308.52 282.239C1308.62 281.71 1308.68 281.141 1308.68 280.53ZM1325.79 287H1322L1322.02 284.571H1325.79C1326.89 284.571 1327.81 284.331 1328.55 283.851C1329.3 283.37 1329.86 282.683 1330.23 281.788C1330.62 280.892 1330.81 279.826 1330.81 278.589V277.625C1330.81 276.665 1330.7 275.814 1330.48 275.074C1330.27 274.333 1329.95 273.711 1329.53 273.206C1329.11 272.701 1328.6 272.319 1327.99 272.059C1327.39 271.798 1326.69 271.668 1325.9 271.668H1321.92V269.227H1325.9C1327.08 269.227 1328.16 269.426 1329.14 269.825C1330.11 270.215 1330.96 270.781 1331.66 271.521C1332.38 272.262 1332.93 273.149 1333.31 274.183C1333.69 275.216 1333.88 276.372 1333.88 277.649V278.589C1333.88 279.867 1333.69 281.023 1333.31 282.056C1332.93 283.09 1332.38 283.977 1331.66 284.717C1330.95 285.45 1330.09 286.015 1329.1 286.414C1328.11 286.805 1327.01 287 1325.79 287ZM1323.69 269.227V287H1320.63V269.227H1323.69ZM1339.82 273.792V287H1336.86V273.792H1339.82ZM1336.67 270.325C1336.67 269.878 1336.81 269.507 1337.11 269.214C1337.41 268.913 1337.82 268.763 1338.35 268.763C1338.87 268.763 1339.28 268.913 1339.59 269.214C1339.89 269.507 1340.04 269.878 1340.04 270.325C1340.04 270.765 1339.89 271.131 1339.59 271.424C1339.28 271.717 1338.87 271.863 1338.35 271.863C1337.82 271.863 1337.41 271.717 1337.11 271.424C1336.81 271.131 1336.67 270.765 1336.67 270.325ZM1345.99 276.307V287H1343.05V273.792H1345.86L1345.99 276.307ZM1350.03 273.707L1350.01 276.441C1349.83 276.408 1349.64 276.384 1349.42 276.368C1349.22 276.351 1349.02 276.343 1348.81 276.343C1348.31 276.343 1347.87 276.417 1347.48 276.563C1347.1 276.701 1346.78 276.905 1346.52 277.173C1346.27 277.434 1346.07 277.751 1345.93 278.125C1345.79 278.5 1345.71 278.919 1345.69 279.383L1345.02 279.432C1345.02 278.602 1345.1 277.833 1345.26 277.125C1345.42 276.417 1345.67 275.794 1345.99 275.257C1346.33 274.72 1346.74 274.301 1347.24 274C1347.74 273.698 1348.33 273.548 1348.98 273.548C1349.16 273.548 1349.36 273.564 1349.56 273.597C1349.77 273.629 1349.93 273.666 1350.03 273.707ZM1357.46 287.244C1356.48 287.244 1355.6 287.085 1354.81 286.768C1354.03 286.443 1353.36 285.991 1352.81 285.413C1352.26 284.835 1351.84 284.156 1351.55 283.375C1351.26 282.593 1351.11 281.751 1351.11 280.848V280.359C1351.11 279.326 1351.26 278.39 1351.56 277.552C1351.86 276.714 1352.28 275.997 1352.82 275.403C1353.35 274.801 1353.99 274.341 1354.72 274.024C1355.45 273.707 1356.25 273.548 1357.1 273.548C1358.05 273.548 1358.87 273.707 1359.58 274.024C1360.29 274.341 1360.87 274.789 1361.34 275.367C1361.81 275.936 1362.16 276.616 1362.39 277.405C1362.62 278.195 1362.74 279.065 1362.74 280.018V281.275H1352.54V279.163H1359.84V278.931C1359.82 278.402 1359.71 277.906 1359.52 277.442C1359.33 276.978 1359.04 276.604 1358.65 276.319C1358.26 276.034 1357.74 275.892 1357.09 275.892C1356.6 275.892 1356.17 275.997 1355.78 276.209C1355.41 276.412 1355.1 276.709 1354.84 277.1C1354.59 277.491 1354.4 277.963 1354.26 278.516C1354.13 279.061 1354.06 279.676 1354.06 280.359V280.848C1354.06 281.425 1354.14 281.963 1354.29 282.459C1354.46 282.947 1354.69 283.375 1355 283.741C1355.31 284.107 1355.69 284.396 1356.13 284.607C1356.57 284.811 1357.07 284.913 1357.63 284.913C1358.34 284.913 1358.97 284.77 1359.52 284.485C1360.07 284.201 1360.55 283.798 1360.96 283.277L1362.51 284.778C1362.23 285.193 1361.86 285.592 1361.4 285.975C1360.94 286.349 1360.39 286.654 1359.73 286.89C1359.08 287.126 1358.32 287.244 1357.46 287.244ZM1370.43 284.9C1370.91 284.9 1371.34 284.807 1371.73 284.62C1372.12 284.424 1372.43 284.156 1372.67 283.814C1372.91 283.472 1373.04 283.077 1373.07 282.63H1375.84C1375.82 283.484 1375.57 284.262 1375.08 284.961C1374.6 285.661 1373.95 286.219 1373.14 286.634C1372.34 287.041 1371.45 287.244 1370.47 287.244C1369.46 287.244 1368.58 287.073 1367.83 286.731C1367.08 286.382 1366.46 285.901 1365.96 285.291C1365.47 284.681 1365.09 283.977 1364.84 283.179C1364.6 282.382 1364.48 281.527 1364.48 280.616V280.188C1364.48 279.277 1364.6 278.423 1364.84 277.625C1365.09 276.819 1365.47 276.111 1365.96 275.501C1366.46 274.891 1367.08 274.415 1367.83 274.073C1368.58 273.723 1369.46 273.548 1370.46 273.548C1371.51 273.548 1372.44 273.759 1373.24 274.183C1374.04 274.598 1374.66 275.18 1375.12 275.928C1375.58 276.669 1375.82 277.531 1375.84 278.516H1373.07C1373.04 278.028 1372.92 277.588 1372.7 277.198C1372.49 276.799 1372.19 276.482 1371.8 276.246C1371.42 276.01 1370.96 275.892 1370.42 275.892C1369.83 275.892 1369.33 276.014 1368.94 276.258C1368.55 276.494 1368.25 276.819 1368.03 277.234C1367.81 277.641 1367.65 278.101 1367.55 278.614C1367.46 279.118 1367.42 279.643 1367.42 280.188V280.616C1367.42 281.161 1367.46 281.69 1367.55 282.203C1367.64 282.715 1367.8 283.175 1368.02 283.582C1368.24 283.981 1368.55 284.302 1368.94 284.546C1369.33 284.782 1369.83 284.9 1370.43 284.9ZM1384.15 273.792V275.94H1376.71V273.792H1384.15ZM1378.86 270.557H1381.8V283.35C1381.8 283.757 1381.85 284.07 1381.97 284.29C1382.09 284.502 1382.26 284.644 1382.47 284.717C1382.68 284.791 1382.93 284.827 1383.21 284.827C1383.42 284.827 1383.61 284.815 1383.8 284.791C1383.99 284.766 1384.14 284.742 1384.25 284.717L1384.26 286.963C1384.02 287.037 1383.73 287.102 1383.41 287.159C1383.09 287.216 1382.73 287.244 1382.31 287.244C1381.63 287.244 1381.04 287.126 1380.52 286.89C1379.99 286.646 1379.59 286.251 1379.29 285.706C1379 285.161 1378.86 284.437 1378.86 283.533V270.557ZM1389.57 268.25V287H1386.62V268.25H1389.57ZM1396.63 285.56L1400.22 273.792H1403.37L1398.07 289.014C1397.95 289.34 1397.79 289.694 1397.59 290.076C1397.4 290.459 1397.14 290.821 1396.82 291.163C1396.51 291.513 1396.13 291.793 1395.66 292.005C1395.2 292.225 1394.64 292.334 1393.98 292.334C1393.72 292.334 1393.47 292.31 1393.22 292.261C1392.99 292.221 1392.76 292.176 1392.55 292.127L1392.54 289.881C1392.62 289.889 1392.72 289.897 1392.83 289.905C1392.95 289.913 1393.05 289.917 1393.13 289.917C1393.61 289.917 1394.02 289.856 1394.35 289.734C1394.67 289.62 1394.94 289.433 1395.14 289.173C1395.35 288.912 1395.53 288.562 1395.68 288.123L1396.63 285.56ZM1394.6 273.792L1397.74 283.68L1398.26 286.78L1396.23 287.305L1391.43 273.792H1394.6Z" fill="#1E5966"/>
<g clip-path="url(#clip0_200_232)">
<path d="M1311.88 105.559L1311.89 105.571L1311.9 105.582C1315.5 110.284 1320.13 114.081 1325.43 116.686C1325.72 116.832 1325.83 117.08 1325.83 117.254V155.857C1325.83 156.042 1325.74 156.191 1325.61 156.266C1320.8 159 1315.31 161.782 1310.19 163.872C1304.98 165.999 1300.46 167.278 1297.46 167.278H1275.83C1275.79 167.278 1275.76 167.274 1275.75 167.271C1273.98 165.514 1268.52 159.267 1263.5 144.979C1260.51 135.772 1258.94 126.167 1258.85 116.498C1258.85 116.304 1259.02 116.083 1259.31 116.083H1285.67C1288.7 116.083 1291.17 113.621 1291.17 110.583V81.3541C1291.17 77.6162 1294.07 75.2682 1296.69 73.9274C1296.73 73.953 1296.78 74.0097 1296.83 74.1172C1298.07 77.3859 1300.37 83.2713 1303.07 89.2943C1305.75 95.2604 1308.91 101.571 1311.88 105.559Z" stroke="#1E5966" stroke-width="5"/>
<path d="M1337.68 109.708C1337.83 109.557 1338.04 109.472 1338.25 109.472H1358.39C1358.66 109.472 1358.89 109.696 1358.89 109.972V163.472C1358.89 163.748 1358.66 163.972 1358.39 163.972H1338.25C1338.04 163.972 1337.83 163.887 1337.68 163.736C1337.53 163.585 1337.44 163.38 1337.44 163.167V110.278C1337.44 110.064 1337.53 109.859 1337.68 109.708Z" fill="#E9C37D" stroke="#1E5966" stroke-width="5"/>
</g>
<path d="M574.198 66.6588L566.685 57.8909L562.848 68.782L574.198 66.6588ZM316.151 137.626C315.859 138.095 316.003 138.711 316.472 139.003C316.941 139.294 317.558 139.15 317.849 138.681L316.151 137.626ZM547.277 57.176L547.609 56.2328L547.277 57.176ZM322.322 131.806C322.633 131.349 322.515 130.727 322.059 130.416C321.602 130.105 320.98 130.224 320.669 130.68L322.322 131.806ZM330.562 117.39C330.214 117.819 330.279 118.449 330.708 118.797C331.137 119.145 331.766 119.08 332.114 118.651L330.562 117.39ZM342.983 106.373C343.366 105.975 343.355 105.342 342.957 104.959C342.559 104.575 341.926 104.587 341.543 104.985L342.983 106.373ZM353.536 93.5556C353.121 93.9193 353.078 94.551 353.442 94.9667C353.806 95.3823 354.438 95.4244 354.853 95.0607L353.536 93.5556ZM367.641 84.7968C368.085 84.4697 368.181 83.8438 367.854 83.3988C367.527 82.9538 366.901 82.8583 366.456 83.1854L367.641 84.7968ZM380.207 73.9471C379.736 74.2354 379.588 74.851 379.877 75.322C380.165 75.7931 380.78 75.9412 381.252 75.653L380.207 73.9471ZM395.587 67.692C396.081 67.4445 396.28 66.8436 396.033 66.3499C395.785 65.8562 395.184 65.6566 394.691 65.9041L395.587 67.692ZM409.801 59.1113C409.288 59.3163 409.038 59.8982 409.243 60.411C409.448 60.9239 410.03 61.1734 410.543 60.9684L409.801 59.1113ZM426.012 55.5285C426.541 55.3674 426.838 54.8086 426.677 54.2803C426.516 53.752 425.957 53.4544 425.429 53.6155L426.012 55.5285ZM441.465 49.4558C440.925 49.5718 440.581 50.1036 440.697 50.6435C440.813 51.1835 441.345 51.5272 441.885 51.4112L441.465 49.4558ZM458.048 48.6473C458.596 48.5773 458.983 48.0765 458.913 47.5286C458.843 46.9808 458.342 46.5934 457.794 46.6634L458.048 48.6473ZM474.302 45.2612C473.75 45.2846 473.321 45.7509 473.345 46.3027C473.368 46.8545 473.835 47.2828 474.386 47.2594L474.302 45.2612ZM490.783 47.2606C491.335 47.2841 491.801 46.8558 491.825 46.304C491.848 45.7522 491.42 45.2859 490.868 45.2624L490.783 47.2606ZM507.376 46.6692C506.828 46.599 506.327 46.9862 506.256 47.534C506.186 48.0818 506.573 48.5828 507.121 48.653L507.376 46.6692ZM523.283 51.4264C523.822 51.5428 524.354 51.1995 524.471 50.6596C524.587 50.1197 524.244 49.5877 523.704 49.4713L523.283 51.4264ZM539.738 53.6441C539.21 53.4826 538.651 53.7798 538.489 54.3079C538.328 54.8361 538.625 55.3951 539.153 55.5566L539.738 53.6441ZM553.675 60.4899C554.196 60.6734 554.767 60.3998 554.951 59.8789C555.134 59.358 554.86 58.787 554.34 58.6035L553.675 60.4899ZM567.8 63.3449C567.279 63.1614 566.708 63.4349 566.525 63.9559C566.341 64.4768 566.615 65.0478 567.136 65.2313L567.8 63.3449ZM317.849 138.681C319.298 136.349 320.789 134.057 322.322 131.806L320.669 130.68C319.12 132.955 317.614 135.27 316.151 137.626L317.849 138.681ZM332.114 118.651C335.581 114.383 339.209 110.288 342.983 106.373L341.543 104.985C337.729 108.941 334.065 113.078 330.562 117.39L332.114 118.651ZM354.853 95.0607C358.982 91.4481 363.249 88.0252 367.641 84.7968L366.456 83.1854C362.019 86.4471 357.708 89.9055 353.536 93.5556L354.853 95.0607ZM381.252 75.653C385.923 72.7942 390.706 70.1389 395.587 67.692L394.691 65.9041C389.759 68.3761 384.927 71.0588 380.207 73.9471L381.252 75.653ZM410.543 60.9684C415.621 58.9385 420.782 57.1235 426.012 55.5285L425.429 53.6155C420.145 55.2269 414.93 57.0605 409.801 59.1113L410.543 60.9684ZM441.885 51.4112C447.223 50.2644 452.616 49.3414 458.048 48.6473L457.794 46.6634C452.306 47.3647 446.858 48.2972 441.465 49.4558L441.885 51.4112ZM474.386 47.2594C479.832 47.0286 485.302 47.0273 490.783 47.2606L490.868 45.2624C485.33 45.0267 479.803 45.028 474.302 45.2612L474.386 47.2594ZM507.121 48.653C512.516 49.3446 517.907 50.2675 523.283 51.4264L523.704 49.4713C518.273 48.3004 512.826 47.368 507.376 46.6692L507.121 48.653ZM539.153 55.5566C541.758 56.3531 544.356 57.2071 546.945 58.1192L547.609 56.2328C544.994 55.3114 542.369 54.4487 539.738 53.6441L539.153 55.5566ZM546.945 58.1192L553.675 60.4899L554.34 58.6035L547.609 56.2328L546.945 58.1192Z" fill="#7D7D7D"/>
<path d="M1173.2 174.276L1165.68 183.044L1161.85 172.153L1173.2 174.276ZM915.151 103.309C914.859 102.84 915.003 102.223 915.472 101.932C915.941 101.641 916.558 101.785 916.849 102.254L915.151 103.309ZM1146.28 183.759L1146.61 184.702L1146.28 183.759ZM921.322 109.129C921.633 109.586 921.515 110.208 921.059 110.519C920.602 110.829 919.98 110.711 919.669 110.255L921.322 109.129ZM929.562 123.545C929.214 123.116 929.279 122.486 929.708 122.138C930.137 121.79 930.766 121.855 931.114 122.284L929.562 123.545ZM941.983 134.562C942.366 134.96 942.355 135.593 941.957 135.976C941.559 136.359 940.926 136.348 940.543 135.95L941.983 134.562ZM952.536 147.379C952.121 147.016 952.078 146.384 952.442 145.968C952.806 145.553 953.438 145.51 953.853 145.874L952.536 147.379ZM966.641 156.138C967.085 156.465 967.181 157.091 966.854 157.536C966.527 157.981 965.901 158.077 965.456 157.749L966.641 156.138ZM979.207 166.988C978.736 166.699 978.588 166.084 978.877 165.613C979.165 165.142 979.78 164.994 980.252 165.282L979.207 166.988ZM994.587 173.243C995.081 173.49 995.28 174.091 995.033 174.585C994.785 175.079 994.184 175.278 993.691 175.031L994.587 173.243ZM1008.8 181.824C1008.29 181.619 1008.04 181.037 1008.24 180.524C1008.45 180.011 1009.03 179.761 1009.54 179.966L1008.8 181.824ZM1025.01 185.406C1025.54 185.567 1025.84 186.126 1025.68 186.655C1025.52 187.183 1024.96 187.48 1024.43 187.319L1025.01 185.406ZM1040.46 191.479C1039.92 191.363 1039.58 190.831 1039.7 190.291C1039.81 189.751 1040.35 189.408 1040.88 189.524L1040.46 191.479ZM1057.05 192.288C1057.6 192.357 1057.98 192.858 1057.91 193.406C1057.84 193.954 1057.34 194.341 1056.79 194.271L1057.05 192.288ZM1073.3 195.674C1072.75 195.65 1072.32 195.184 1072.34 194.632C1072.37 194.08 1072.83 193.652 1073.39 193.675L1073.3 195.674ZM1089.78 193.674C1090.34 193.651 1090.8 194.079 1090.82 194.631C1090.85 195.183 1090.42 195.649 1089.87 195.672L1089.78 193.674ZM1106.38 194.266C1105.83 194.336 1105.33 193.949 1105.26 193.401C1105.19 192.853 1105.57 192.352 1106.12 192.282L1106.38 194.266ZM1122.28 189.508C1122.82 189.392 1123.35 189.735 1123.47 190.275C1123.59 190.815 1123.24 191.347 1122.7 191.464L1122.28 189.508ZM1138.74 187.291C1138.21 187.452 1137.65 187.155 1137.49 186.627C1137.33 186.099 1137.62 185.54 1138.15 185.378L1138.74 187.291ZM1152.68 180.445C1153.2 180.261 1153.77 180.535 1153.95 181.056C1154.13 181.577 1153.86 182.148 1153.34 182.331L1152.68 180.445ZM1166.8 177.59C1166.28 177.773 1165.71 177.5 1165.52 176.979C1165.34 176.458 1165.61 175.887 1166.14 175.704L1166.8 177.59ZM916.849 102.254C918.298 104.586 919.789 106.878 921.322 109.129L919.669 110.255C918.12 107.98 916.614 105.665 915.151 103.309L916.849 102.254ZM931.114 122.284C934.581 126.552 938.209 130.646 941.983 134.562L940.543 135.95C936.729 131.994 933.065 127.857 929.562 123.545L931.114 122.284ZM953.853 145.874C957.982 149.487 962.249 152.91 966.641 156.138L965.456 157.749C961.019 154.488 956.708 151.029 952.536 147.379L953.853 145.874ZM980.252 165.282C984.923 168.141 989.706 170.796 994.587 173.243L993.691 175.031C988.759 172.559 983.927 169.876 979.207 166.988L980.252 165.282ZM1009.54 179.966C1014.62 181.996 1019.78 183.811 1025.01 185.406L1024.43 187.319C1019.14 185.708 1013.93 183.874 1008.8 181.824L1009.54 179.966ZM1040.88 189.524C1046.22 190.67 1051.62 191.593 1057.05 192.288L1056.79 194.271C1051.31 193.57 1045.86 192.638 1040.46 191.479L1040.88 189.524ZM1073.39 193.675C1078.83 193.906 1084.3 193.907 1089.78 193.674L1089.87 195.672C1084.33 195.908 1078.8 195.907 1073.3 195.674L1073.39 193.675ZM1106.12 192.282C1111.52 191.59 1116.91 190.667 1122.28 189.508L1122.7 191.464C1117.27 192.634 1111.83 193.567 1106.38 194.266L1106.12 192.282ZM1138.15 185.378C1140.76 184.582 1143.36 183.728 1145.94 182.816L1146.61 184.702C1143.99 185.623 1141.37 186.486 1138.74 187.291L1138.15 185.378ZM1145.94 182.816L1152.68 180.445L1153.34 182.331L1146.61 184.702L1145.94 182.816Z" fill="#7D7D7D"/>
<defs>
<clipPath id="clip0_200_232">
<rect width="119" height="119" fill="white" transform="translate(1249 64)"/>
</clipPath>
</defs>
</svg>
