<svg width="40" height="40" viewBox="0 0 40 40" fill="none" xmlns="http://www.w3.org/2000/svg">
<path d="M32.84 7.6625C32.84 10.5125 30.46 12.825 27.5225 12.825C24.5875 12.825 22.205 10.515 22.205 7.6625C22.205 4.8125 24.5875 2.5 27.525 2.5C30.4625 2.5 32.8425 4.8125 32.8425 7.6625H32.84ZM10.635 19C10.635 21.85 8.255 24.1625 5.3175 24.1625C2.38 24.1625 0 21.85 0 19C0 16.15 2.38 13.8375 5.3175 13.8375C8.255 13.8375 10.635 16.1475 10.635 19ZM17.3425 32.3175C13.5 31.5175 10.2875 29.135 8.4875 25.7625C7.05707 26.3959 5.47003 26.5874 3.93 26.3125C6.12 31.515 10.745 35.2875 16.41 36.4675C17.6525 36.7199 18.9171 36.8472 20.185 36.8475C19.2153 35.612 18.6684 34.0975 18.625 32.5275L18.455 32.5C18.0829 32.446 17.712 32.3843 17.3425 32.315V32.3175ZM31.625 32.3375C31.625 35.1875 29.245 37.5 26.3075 37.5C23.37 37.5 20.99 35.1875 20.99 32.3375C20.99 29.4875 23.37 27.175 26.3075 27.175C29.245 27.175 31.625 29.4875 31.625 32.3375ZM33.73 30.44C35.3866 28.4103 36.5465 26.0219 37.1175 23.465C37.5998 21.2608 37.6252 18.9812 37.1922 16.7668C36.7592 14.5524 35.877 12.4502 34.6 10.59C33.9809 12.012 32.934 13.2057 31.605 14.005C33.0352 16.6297 33.4744 19.681 32.8425 22.6025C32.5285 24.0222 31.9702 25.3765 31.1925 26.605C32.43 27.575 33.3175 28.925 33.73 30.44ZM5.095 11.5725C5.03182 11.5783 4.96844 11.5816 4.905 11.5825C8.2275 5.8925 14.7375 2.5425 21.425 3.0475C20.7083 3.93046 20.2105 4.97044 19.9725 6.0825C19.8991 6.46502 19.8481 6.85151 19.82 7.24C17.7733 7.27005 15.7618 7.77721 13.9456 8.72116C12.1293 9.6651 10.5583 11.0198 9.3575 12.6775C8.60435 12.2312 7.78364 11.9103 6.9275 11.7275C6.39855 11.6185 5.86006 11.5624 5.32 11.56C5.2425 11.56 5.1675 11.5675 5.095 11.5725Z" fill="#56909D"/>
</svg>
