<svg width="40" height="40" viewBox="0 0 40 40" fill="none" xmlns="http://www.w3.org/2000/svg">
<path d="M40 4.73149C38.5021 5.54852 36.9131 6.08444 35.286 6.32137C37.0004 5.05993 38.2835 3.07427 38.896 0.734628C37.2853 1.91221 35.5224 2.7413 33.684 3.1859C32.5576 1.71028 31.0969 0.685131 29.4913 0.243406C27.8857 -0.198319 26.2093 -0.036247 24.6795 0.708604C23.1496 1.45346 21.8369 2.74673 20.9116 4.42071C19.9863 6.0947 19.491 8.07218 19.49 10.0967C19.4889 10.8711 19.5593 11.6431 19.7 12.3979C16.4375 12.1963 13.2459 11.1529 10.3324 9.33519C7.41883 7.51752 4.84843 4.96628 2.788 1.84705C1.73852 4.07032 1.417 6.70218 1.88888 9.20689C2.36077 11.7116 3.59059 13.9009 5.328 15.3291C4.02385 15.2799 2.74825 14.847 1.608 14.0665V14.1945C1.60832 16.5263 2.26412 18.7862 3.46416 20.5909C4.66421 22.3955 6.3346 23.6338 8.192 24.0956C7.48737 24.3314 6.76021 24.4497 6.03 24.4475C5.51131 24.4478 4.99373 24.3885 4.484 24.2703C5.0081 26.2765 6.02853 28.0311 7.40263 29.2887C8.77674 30.5463 10.4358 31.2441 12.148 31.2845C8.70684 34.5988 4.33883 36.1005 0 35.461C3.75211 38.4292 8.1195 40.0047 12.58 39.9994C15.6515 40.0249 18.6966 39.2992 21.5383 37.8644C24.38 36.4297 26.9618 34.3145 29.1336 31.6417C31.3055 28.9688 33.0242 25.7916 34.1899 22.2946C35.3555 18.7976 35.945 15.0504 35.924 11.2707C35.924 10.8326 35.9153 10.3978 35.898 9.96629C37.5071 8.53491 38.8961 6.76229 40 4.73149Z" fill="#56909D"/>
</svg>
