<svg width="40" height="32" viewBox="0 0 40 32" fill="none" xmlns="http://www.w3.org/2000/svg">
<path fill-rule="evenodd" clip-rule="evenodd" d="M20 0C21.71 0 23.464 0.0440002 25.164 0.116L27.172 0.212L29.094 0.326L30.894 0.448L32.538 0.576C34.3221 0.712555 36.0009 1.47389 37.2791 2.72608C38.5572 3.97826 39.3529 5.64108 39.526 7.422L39.606 8.272L39.756 10.092C39.896 11.978 40 14.034 40 16C40 17.966 39.896 20.022 39.756 21.908L39.606 23.728C39.58 24.02 39.554 24.302 39.526 24.578C39.3528 26.3592 38.5569 28.0223 37.2783 29.2745C35.9997 30.5268 34.3205 31.2879 32.536 31.424L30.896 31.55L29.096 31.674L27.172 31.788L25.164 31.884C23.4437 31.9588 21.722 31.9974 20 32C18.278 31.9974 16.5563 31.9588 14.836 31.884L12.828 31.788L10.906 31.674L9.106 31.55L7.462 31.424C5.6779 31.2874 3.9991 30.5261 2.72095 29.2739C1.44279 28.0217 0.647149 26.3589 0.474 24.578L0.394 23.728L0.244 21.908C0.0910751 19.9423 0.00968804 17.9716 0 16C0 14.034 0.104 11.978 0.244 10.092L0.394 8.272C0.42 7.98 0.446 7.698 0.474 7.422C0.647081 5.6414 1.44243 3.97883 2.72018 2.72669C3.99793 1.47454 5.67626 0.713005 7.46 0.576L9.102 0.448L10.902 0.326L12.826 0.212L14.834 0.116C16.555 0.0412659 18.2774 0.00259057 20 0ZM16 11.15V20.85C16 21.774 17 22.35 17.8 21.89L26.2 17.04C26.3828 16.9348 26.5346 16.7832 26.6402 16.6007C26.7458 16.4181 26.8013 16.2109 26.8013 16C26.8013 15.7891 26.7458 15.5819 26.6402 15.3993C26.5346 15.2168 26.3828 15.0652 26.2 14.96L17.8 10.112C17.6175 10.0066 17.4105 9.9512 17.1998 9.95123C16.9891 9.95126 16.7821 10.0068 16.5997 10.1122C16.4172 10.2176 16.2657 10.3692 16.1605 10.5517C16.0552 10.7343 15.9999 10.9413 16 11.152V11.15Z" fill="#56909D"/>
</svg>
